<svg width="25" height="25" viewBox="0 0 25 25" fill="none" xmlns="http://www.w3.org/2000/svg">
<circle cx="12.875" cy="12.425" r="12.125" fill="#D9D9D9" fill-opacity="0.5"/>
<path d="M12.8751 4.33179C8.65467 4.33179 5.23633 7.84508 5.23633 12.1827C5.23633 15.6568 7.42292 18.5911 10.4593 19.6313C10.8413 19.7 10.9845 19.4645 10.9845 19.2584C10.9845 19.0719 10.9749 18.4537 10.9749 17.7961C9.0557 18.1593 8.55918 17.3153 8.40641 16.8737C8.32047 16.6479 7.94808 15.9512 7.62344 15.7647C7.35608 15.6175 6.97414 15.2544 7.61389 15.2446C8.21544 15.2348 8.64512 15.8138 8.78835 16.0493C9.47583 17.2368 10.5739 16.9031 11.0131 16.697C11.08 16.1867 11.2805 15.8432 11.5001 15.647C9.80048 15.4507 8.02447 14.7735 8.02447 11.7706C8.02447 10.9168 8.32047 10.2102 8.80744 9.66061C8.73106 9.46434 8.4637 8.65962 8.88383 7.58011C8.88383 7.58011 9.52358 7.37403 10.9845 8.38483C11.5956 8.20819 12.2449 8.11986 12.8942 8.11986C13.5435 8.11986 14.1928 8.20819 14.8039 8.38483C16.2648 7.36421 16.9045 7.58011 16.9045 7.58011C17.3247 8.65962 17.0573 9.46434 16.9809 9.66061C17.4679 10.2102 17.7639 10.9069 17.7639 11.7706C17.7639 14.7833 15.9783 15.4507 14.2787 15.647C14.5556 15.8923 14.7943 16.3633 14.7943 17.0994C14.7943 18.1494 14.7848 18.9934 14.7848 19.2584C14.7848 19.4645 14.928 19.7098 15.3099 19.6313C16.8264 19.1051 18.1441 18.1035 19.0776 16.7673C20.0111 15.4311 20.5134 13.8277 20.5138 12.1827C20.5138 7.84508 17.0955 4.33179 12.8751 4.33179Z" fill="white"/>
</svg>
