<svg width="26" height="26" viewBox="0 0 26 26" fill="none" xmlns="http://www.w3.org/2000/svg">
<g id="linkedin">
<circle id="Ellipse 3" cx="13" cy="13" r="13" fill="#D9D9D9" fill-opacity="0.5"/>
<g id="linked_in">
<path d="M10.155 9.45562C10.155 9.95089 9.60892 10.3524 8.93529 10.3524C8.26166 10.3524 7.71558 9.95089 7.71558 9.45562C7.71558 8.96034 8.26166 8.55884 8.93529 8.55884C9.60892 8.55884 10.155 8.96034 10.155 9.45562Z" fill="white"/>
<path d="M7.88237 11.0116H9.96736V15.9783H7.88237V11.0116Z" fill="white"/>
<path d="M13.3242 11.0116H11.2392V15.9783H13.3242C13.3242 15.9783 13.3242 14.4147 13.3242 13.4371C13.3242 12.8503 13.5791 12.2609 14.596 12.2609C15.7453 12.2609 15.7384 13.0288 15.733 13.6238C15.726 14.4014 15.7428 15.195 15.7428 15.9783H17.8277V13.357C17.8101 11.6832 17.2553 10.9119 15.43 10.9119C14.3461 10.9119 13.6741 11.2988 13.3242 11.6488V11.0116Z" fill="white"/>
</g>
</g>
</svg>
