<?xml version="1.0" encoding="utf-8"?>
<!-- Generator: Adobe Illustrator 27.6.1, SVG Export Plug-In . SVG Version: 6.00 Build 0)  -->
<svg version="1.1" xmlns="http://www.w3.org/2000/svg" xmlns:xlink="http://www.w3.org/1999/xlink" x="0px" y="0px"
	 viewBox="0 0 1009.9 783" style="enable-background:new 0 0 1009.9 783;" xml:space="preserve">
<style type="text/css">
	.st0{fill:#343435;}
	.st1{fill:#33363A;}
	.st2{fill:#333433;}
	.st3{fill:#313534;}
	.st4{fill:#35393E;}
	.st5{fill:#535353;}
	.st6{fill:#373737;}
	.st7{fill:#4F4F4F;}
	.st8{fill:#01D6E9;}
	.st9{fill:#F6B351;}
	.st10{fill:#363334;}
	.st11{fill:#A8A7A7;}
	.st12{fill:#AEAEAC;}
	.st13{fill:#ECA947;}
	.st14{fill:#9FA09E;}
	.st15{fill:#4C4C4C;}
	.st16{fill:#848482;}
	.st17{fill:#939390;}
	.st18{fill:#787776;}
	.st19{fill:#EAEFF1;}
	.st20{fill:#F8B656;}
	.st21{fill:#323740;}
	.st22{fill:#D98538;}
	.st23{fill:#F8B350;}
	.st24{fill:#DD8B3D;}
	.st25{fill:#DA883A;}
	.st26{fill:#DE8737;}
	.st27{fill:#F6CE7D;}
	.st28{fill:#EA9539;}
	.st29{fill:#F930AE;}
	.st30{fill:#F030A8;}
	.st31{fill:#584BFA;}
	.st32{fill:#FA25A0;}
	.st33{fill:#36383C;}
	.st34{fill:#3C3B3B;}
	.st35{fill:#F7B34C;}
	.st36{fill:#313E47;}
	.st37{fill:#FB2A99;}
	.st38{fill:#F2FAFA;}
	.st39{fill:#FDFDFC;}
	.st40{fill:#FFFFFF;}
</style>
<g id="Layer_1">
	<path class="st0" d="M851.6,322.3c0.1,14.6,0.1,29.1,0.2,43.7c0,3.8,0,7.6-0.5,11.9c-1.7,0.9-3.1,1-4,1.8c-2.3,2.1-4.3,4.4-6.5,6.2
		c0.3-7.1,1-13.7,0.9-20.3c-0.1-5.3,0.8-11.5-5.8-14.6c0-0.8,0-1.2,0.4-1.7c6.5-2.7,7.5-4.8,6.4-11.2c-0.3-1.7,0.1-3.4,0.1-5.2
		c-0.1-1.6,0.1-3.5-0.6-4.7c-2.4-3.8-3.6-7.6-1.9-12.1c0.7-1.9,0.4-4.1,0.6-6.4c-2.1,0.2-3.5,0.4-5,0.1c0-7.2,0-13.8,0-21
		c0-3.8,0-7.2,0.3-10.8c0.1-4.8-0.1-9.2-0.3-14.2c0-29.6,0-58.7,0-87.8c0-7.9-3.7-11.9-11.5-11.7c-4.9,0.1-9.8,0.9-14.6,2
		c-7.4,1.7-14.6,3.9-22.3,6c-6.5,2.5-12.6,4.9-18.6,7.6c-1.8,0.8-3.4,2.2-5.4,3.4c-4,1.6-4.6,4.8-4.6,8.3c0,17.8-0.1,35.6,0,53.4
		c0.2,31.7,0.6,63.4,1,95.2c0,1.4,0.6,2.8,0.9,4.7c0,12.9,0,25.3,0.1,37.7c0,1.9,0.6,3.9,0.9,6.2c-0.2,3.1-0.5,5.7-0.5,8.3
		c0.1,20.4,0.2,40.8,0,61.3c-1.7-1.8-3.6-3.4-4.3-5.4c-1.6-4.3-1.6-9.4-4.1-12.9c-3.6-5.1-4.3-5.9-0.2-10.3
		c-1.5-2.8-3.1-5.6-4.6-8.9c0.2-4.9,0.7-9.4,0.8-13.8c0.4-35.9,0.6-71.8,1-108.2c0-20.3-0.1-40.1-0.2-60.3c0-18.2,0-36.1,0-54
		c-21.9-1.9-42.3-3.8-63-5.8c-17.5-1-34.6-1.7-52.1-2.6c-37.8,2-75.2,4-113,6c-13.4,1.5-26.5,2.2-39.2,5.2c0,0.6,0,1.2-0.1,1.7
		c1.2,0.3,2.5,0.6,3.7,1.3c-0.7,2.5-1.3,4.6-2.3,6.9c-2.6,0.5-4.9,0.9-7.3,1.3c1.4,6.1,2.8,11.8,3.7,17.6c-3-1.2-5.5-2.6-8-3.8
		c-1.5-0.7-3.1-1.3-4.8-2.3c-2.8-7.1-5.3-13.9-7.5-20.8c6.9-2.7,7-2.8,6.4-12.2c2.1-6.1,4.9-11.7,6.1-17.7c3-15.3,2.2-30.7-0.4-46.1
		c2.3-1.9,4.1-4,6.3-5.6c2.7-2,2.5-3.3-0.2-5.2c-1.3-0.9-2.5-2.7-2.7-4.3c-0.7-4.1-3.9-7-8-7c-1.4,0-2.8-0.7-4.2-1.1
		c1.7-1,3.2-2.2,5-3.1c5.9-2.9,10-1.5,11.4,4.8c2.5,11.5,4.5,23.1,5.9,34.7c0.8,6.5,0.1,13.3,0.1,20c13.3-1.7,26-3.4,39.4-5.2
		c1.4-9.1,12.2-7.7,17.2-14.3c-2-3-4-6.2-6.3-9.2c-12-16.3-23.9-32.6-36.1-48.8c-6.8-9.1-14.1-18-20.9-27.1c-2.3-3-4.8-4.5-8.7-4.7
		c-14-0.8-21.6-11.9-17.3-25c2.8-8.8,11.2-13.3,22.1-11.9c7.8,1,14.3,8.4,14.5,17.3c0.1,3.6-1.2,7.2-1.5,10.8
		c-0.1,1.7-0.1,4.1,0.9,5.1c16.5,16.6,33.1,33.1,49.9,49.4c11.9,11.6,24,22.9,36,34.4c4,3.8,8.3,6.3,14.2,5.7
		c5.1-0.5,10.4-0.5,15.5,0c7.5,0.7,13.3-2.7,19.3-6.6c17.3-11.2,34.8-22,52.3-32.9c7.9-4.9,15.8-9.8,23.7-14.8
		c10.9-6.9,21.8-14,32.8-20.8c3.6-2.3,4.9-4.9,4.8-9.3c-0.2-14.1,10.9-23.2,23.5-19.9c6.7,1.8,11.2,5.7,12.6,12.6
		c1.6,8.2-2.8,13.8-9,17.9c-3.2,2.1-7.4,3.5-11.2,3.4c-4.8-0.1-8.2,1.9-11.6,4.6c-10.8,8.7-21.5,17.6-32.5,26.1
		c-11.2,8.8-22.8,17.2-34.1,25.9c-6.6,5-12.9,10.3-20,15.5c-2-1.5-3.5-3.1-4.9-4.9c-0.6-1.8-1.2-3.2-2-4.9c-5.1-5.8-7-5.9-12.1-1
		c1,1.4,2,2.9,3.2,4.6c1.8,1.2,3.3,2.1,4.9,3.4c1.7,2.3,3.4,4.3,4.8,6.6c-2.9,2.4-5.4,5.2-8.5,6.5c-2.9,1.3-6.5,1-10.1,1.5
		c-22.7,0.2-45.1,0.3-67.5,0.5c-4.9,0.1-9.8,0.8-15.1,1.2c-1.4,0.5-2.5,0.9-3.5,1.4c-2.1,0.9-6,0.5-4.8,4c0.6,1.8,3.8,2.8,6,4
		c0.8,0.4,1.9,0,3.3,0.1c31,1.2,61.6,2.5,93-1.8c-1.8-1.5-2.6-2.2-3.2-3.2c3.6-0.6,7-1,10.3-1.3c0.4-0.4,0.7-0.8,1.1-1.2
		c-5.4-2.4-4-5.3-1.5-7.7c1.4-1.3,3.7-1.6,5.7-2.4c0,0,0,0,0,0.4c0.6,0.6,1.2,0.9,1.7,1.2c0,0,0.1,0.3-0.2,0.9
		c-0.4,0.9-0.5,1.2-0.6,1.9c-0.6,5.8,2.6,6,6.6,5.3c14.1,0.3,28.3,0.3,42.4,0.9c13.2,0.6,26.4,2.1,39.6,3.1
		c19.2,1.4,38.4,2.4,57.5,4.1c7.8,0.7,15.4,3,23.2,3.9c5.3,0.6,10.3,0.9,15.1,3.7c8.4,5,12.3,12.7,12.4,21.8
		c0.4,24,0.2,47.9,0.2,71.9c0,21,0,41.9-0.4,63.4c-4.2,0.8-3.8,3.8-3.3,6C848.4,320.2,850.4,321.1,851.6,322.3 M536.8,95.9
		c-0.1,0-0.2-0.1-0.3-0.1c0.1,0.2,0.2,0.4,0.4,1.2c1.9,2.4,3.8,4.8,6,7.9c3.2,5,6.3,10,9.7,14.9c4.6,6.6,5.9,6.8,14.9,3.6
		c-7.8-6.7-15.1-13-22.6-20C542.3,101,539.6,98.6,536.8,95.9 M521.5,170.6c0.5-0.1,1-0.2,2.3-0.1c5.3-0.5,10.6-1.2,15.8-1.4
		c27.1-1.1,54.2-2.1,81.3-2.9c12.3-0.4,24.6-0.2,37.9-0.1c1,0.1,2,0.3,3,0.3c21.9,1,43.8,2.2,65.8,3c10.6,0.4,21.3,1,31.7-0.2
		c8.8-1,17.2-4.5,25.8-6.9c1.8-0.5,3.6-1.1,6.7-2c-2-0.5-2.6-0.7-3.2-0.8c-13.9-1.3-27.8-2.7-41.6-3.8c-15.1-1.2-30.2-2.9-45.2-2.8
		c-16.6,0.1-33.7-5.5-50.6,2.8c-11.7,1.5-23.3,4-35,4.2c-25.7,0.4-51.4-0.3-77.1-0.9c-3.8-0.1-7.5-2.8-11.2-4.2
		c-1.3-0.5-2.7-1.6-3.9-1.5c-9.7,1.3-19.3,2.8-29.7,4.2c-9.8,2.3-12.8,5.8-12.6,15.1c-0.4,0.7-0.8,1.4-1.7,3.1
		c5.3-0.8,9.8-1.6,14.3-2.1C503,172.4,511.9,171.4,521.5,170.6 M465.2,18c0,4.5,2.6,6.3,6.7,5.9c3.1-0.3,4.8-2.2,4.3-5.4
		c-0.6-3.7-3.4-4.9-6.6-4.3C468.1,14.4,466.8,16.2,465.2,18 M748.9,35.1c-0.2,4.1,2.2,5,5.7,4.9c3.9-0.2,6.4-2,6.9-5.8
		c0.1-0.8-1.8-2.8-2.4-2.6C755.8,32.2,752.6,33.4,748.9,35.1z"/>
	<path class="st1" d="M393.8,122.3c0.2,2,0.3,3.9,0.5,6c6.1,1.4,12,2.8,18.3,4.7c-1.2,2.3-2.7,4.1-4.3,6.1c0.4,1.2,1,2.8,1.2,4.4
		c-2.4-0.4-4.5-0.9-6.5-1.7c0.2-3,5.3-4.6,1.5-8.7c-1.6,3-3,5.6-4.9,8.4c-2.5-0.1-4.6-0.2-6.9-0.6c-5-1.6-2.7,2.4-3.2,3.8
		c-3.2,0.9-6.1,1.7-9.1,2.1c0.5-6.2,1.6-12,1.6-17.8c0-11.6-0.7-23.1-1.3-35c-9-2.4-17.4,0.2-25.6,2.3c-16.8,4.4-33.6,8.9-47.6,20.6
		c-1.1,0.3-2,0.5-2.7,0.9c-16,10.7-28.6,24.7-39.4,40.4c-0.3,0.5-0.4,1.3-0.3,1.9c1.5,5.5,3,11.1,4.5,17c0.6,2.7,1.3,5,2.1,7.8
		c-6.1,1.4-9.9-2-13.7-5.9c-0.8-5.4-1.6-10.4-2.6-16.2c-3.7,2.9-7.1,4.9-9.7,7.8c-19.3,20.5-33.1,43.8-37.9,72
		c-3.4,20-0.8,39.3,7.1,58.3c-1.8,1.8-3.6,4.5-5.3,4.4c-2.1-0.1-4.9-2-6.1-3.9c-2.3-3.7-3.6-8-5.3-12.4c-0.5-2.3-1.1-4.2-1.6-6.1
		c-0.9-3.7-2.8-4-5.1-1.3c-9.9,11.6-20.4,22.7-29.5,35c-9.2,12.4-17.1,25.6-25.2,38.8c-11.8,19.2-22.6,38.8-29,60.8
		c-6.4,22.2-8.8,44.6-6.2,67.5c0.8,7.5,3.5,14.7,5.4,22.4c2.5,7.4,4.2,14.8,7.6,21.3c8.4,16.2,21.2,28.7,35.4,39.8
		c11.9,9.2,25.5,15.1,40,18.6c15.2,3.6,30.6,6,46.2,9.2c10.3,1,20.2,2.2,30.1,2.3c30.7,0.3,61.5,2,92-3.7
		c18.9-3.6,37.9-6.6,55.3-15.7c6.1-3.2,6.4-3.2,5.6-12.8c-0.4-9.2-5-15.3-12.2-16.5c-5.7-0.9-11.4-2.5-17.2-2.6
		c-11.4-0.3-22.8-0.1-34.1,0.3c-6.5,0.2-13.1,1.3-19.6,1.6c0.3-4.5,0.7-8.6,1.3-12.9c2.1-0.6,3.8-1,5.5-1.4c0.4-2,0.7-3.9,1.5-5.9
		c5.4-3.3,5.6-4.4,3.1-9.4c-0.9-1.8-0.9-4-0.9-6c2.3,0.2,4.1,0.6,5.9,0.5c5.8-0.1,11.6-0.2,16.2-5.2c4.3-11.4,1.8-22.2-1.2-33.4
		c-0.4-1.7-0.7-3-0.6-4.3c3,0.7,5.5,1.4,8,2.1c1.8,0.5,3.6,1.2,5.6,2.1c0.8,3.1,1.4,5.8,2.1,8.8c0.9-0.6,1.3-0.7,1.4-0.9
		c0.6-3.7,1.1-7.5,2-11.3c5.4-1.4,6-0.7,5.8,6.1c-1.1,0.4-2.1,0.6-2.3,1.2c-2.4,5.2-1.3,7.5,5.3,12.3c0,1.8,0,3.2-0.2,4.7
		c-0.2,0.4-0.1,0.6,0.4,1.1c2.5,2.2,4.9,4,7.2,6.2c1,3.9,1.8,7.3-4.1,7.4c-2.2-1.7-4.1-3.3-6.1-5.1c-1-1.2-1.8-2.2-2.8-3.4
		c-1.8,2.2-3.5,4.4-5.5,6.7c-6.8,5.6-12.9,11.5-21.7,13.2c-5.6,1.1-8,8.9-4.7,14.7c0.6-0.3,1.2-0.9,1.8-1.7
		c5.2-3.7,10.3-7.1,15.8-10.4c1.3,1.5,2.3,2.9,3,4.6c-3.5,1.6-6.8,2.9-10,4.2c0.2,0.5,0.4,1.1,0.6,1.6c7.2,0,14.5,0,21.7,0.1
		c0.1,0.1,0.5,0.3,0.5,0.3s0.4-0.2,0.4-0.3s0-0.4,0.4-0.3c7.1,1.3,13.8,2.1,20.4,3.7c5.7,1.4,10.7,4.1,13.5,9.8
		c1.5,3,3.6,5.8,5.5,9.1c0.8,2.8,1.5,5.3,2.6,8.7c3.6-3.1,6.6-5.8,9.9-8.5c7.9-7.3,11.3-16.8,15.8-25.7c0.9,1.1,1.8,2,1.9,3
		c0.2,4,0.1,8,0.1,12.3c-5.3,6.3-10.3,12.3-15.8,18c-7.3,7.6-14.1,15.4-16.2,26.2c-5.2,1.6-10.3,3.7-15.7,4.7
		c-23.2,4.6-46.4,10.3-69.9,12.7c-23.6,2.4-47.5,1.5-71.3,1.6c-12.6,0.1-25.3-0.3-37.9-1.5c-10.3-1-20.6-3.4-30.8-5.8
		c-17.9-4.2-35.8-8.6-53.5-13.4c-9.1-2.5-17.9-6.1-26.8-9.3c-3.1-1.1-3.6-3.2-1.5-5.8c2.1-2.5,4.2-5,6.3-7.6
		c-4.5-5.1-9-9.7-12.9-14.8c-11.6-15-19.7-31.6-23.7-50.4c-5.1-24-4.1-47.8,0.1-71.7c4.3-24.8,15-47.1,26.8-68.8
		c6.7-12.4,14.8-24,22.8-35.5c8.8-12.8,17.9-25.5,27.5-37.7c6.7-8.6,14.6-16.2,21.8-24.4c1-1.1,2-2.8,2-4.3
		c-0.4-17.1,5.4-32.6,11.5-48.1c6.5-16.4,16.4-30.4,28-43.7c8.6-9.9,19.6-16.7,29.5-24.8c4-3.3,6.6-8.2,10.1-12.2
		c1.8-2.1,3.9-4,6-5.9c14.3-12.4,29.9-22.9,47.6-29.9c18.9-7.5,38.5-12.4,58.9-13.7c6.1-0.4,7.1,0.4,7.7,6.3
		c0.9,10.1,1.6,20.2,2,30.8C389.7,119.5,390.2,121.1,393.8,122.3 M366.4,533.6c-0.5-0.3-1.1-0.7-1.6-1c-0.1,0.3-0.3,0.5-0.4,0.8
		C364.9,533.6,365.5,533.8,366.4,533.6z"/>
	<path class="st2" d="M840.9,386.3c2.1-2.2,4.2-4.6,6.5-6.7c0.9-0.8,2.3-0.9,3.9-1.3c0.5,8.7,0.7,17.4,0.4,26.5
		c-1.1,0.8-1.7,1.2-2.3,1.6c0.8,0.6,1.7,1.2,2.5,1.9c0.1,1.1,0.1,2.1-0.3,3.6c-3.8,3-3.5,5.9,0.2,7.4c0.1,1.4,0.2,2.8-0.2,4.6
		c-1.4,0.8-2.3,1.2-3.2,1.6c1.2,0.6,2.3,1.2,3.5,1.8c0,13,0.2,26-0.2,38.9c-0.4,11.4-7.4,18.5-17.1,23.1
		c-12.8,6-25.6,11.8-38.5,17.6c-10.6,4.8-21.1,9.6-32.2,14.7c2.7,4.5,5.4,8.6,7.7,12.9c3.1,5.7,6.4,11.3,8.6,17.3
		c3.9,10.7-0.7,17.5-12.1,17.7c-12.4,0.2-23.2-4.2-32.3-13c-8.6-8.2-17.8-15.7-26.8-23.4c-0.8-0.7-1.7-1.2-2.1-2.1
		c-3.1-5.9-8.3-5.1-13.7-4.7c-16.1,1-32.2,1.5-48.2,2.4c-2.7,0.1-5.4,1.1-7.9,2.1c-13.5,5.8-25.8,14.6-40.9,16.3
		c-9.1,1-17.8-0.6-25.3-6.4c-5-3.9-10.1-7.5-15.3-11c-1.1-0.7-2.9-0.5-4.3-0.5c-20.9-0.9-41.9-1.6-62.8-2.6c-4-0.2-7.9-1.2-12.1-2.4
		c-0.4-1.3-0.4-2-0.1-3c0.4-2.1,0.6-3.9,0.7-6.2c0-1.2,0-2,0.4-2.7c0.8,0.1,1.2,0.1,1.6,0.6c1,4.7,4.6,5.4,7.9,5.3
		c1.7-0.1,3.4-2.5,5.5-3.9c18.8,1,37.1,2.2,55.5,3.1c9.3,0.5,18.6,0.6,27.9,0.8c13.4,0.3,26.9,0.5,40.7,0.9
		c11.1-0.1,21.8,0,32.4-0.5c9.7-0.4,19.4-1.4,29.5-2.2c4.2-0.3,7.9-0.6,12-0.9c6.8-0.3,13.2-0.7,20-1c12.4-2,24.5-3.9,36.4-6.1
		c1.1-0.2,2.8-2,2.9-3.1c0.2-4.6-0.1-9.2,0-14.3c-0.1-9.2-0.2-17.9-0.6-26.6c-0.1-1.2-1.3-2.4-2-4c0.3-12.9,0.6-25.3,0.9-38.1
		c0.1-0.5,0.1-0.7,0.2-0.8c1.5,2.8,3.1,5.6,4.6,8.4c-4.1,4.3-3.3,5.1,0.2,10.3c2.5,3.5,2.5,8.7,4.1,12.9c0.7,2,2.6,3.6,4.4,5.9
		c0.4,7.2,0.5,13.9,0.5,21c0,9.7,0,18.8,0,28.1c3.5-1.2,6.4-1.9,9-3.1c19.8-9.2,39.7-18.2,59.4-27.8c3.5-1.7,5.9-5.7,9.1-8.7
		c4.6-8.3,2.5-16.6,0.6-25.3c0-1.5,0-2.5,0.3-3.8c-0.2-1.1-0.7-1.9-1.2-3.2c0.3-5.1,0.6-9.9,1.2-14.8c0.4-2.8,0.6-5.2,1.1-7.8
		c2-2.7,3.5-5.2-1.4-6.4c0-2.5,0-4.5,0.4-6.6c1.4,0.5,2.6,0.7,3.4,1.4c3,2.7,4.6,1.3,5.5-0.4c-0.9-4.2-1.6-7.1-2.1-9.3
		c-2.7,1.9-4.5,3.1-6.2,4c-0.3-0.8-0.6-1.2-1-2c0-0.8,0-1.2,0.2-1.8c0.4-0.7,0.6-1.3,1-1.9c0.6-0.4,0.9-0.9,1.3-1.3
		c-0.5-0.2-1-0.5-1.6-1C840.9,387.2,840.9,386.7,840.9,386.3 M751.4,532.3c-1.6-3.8-3.2-7.6-4.9-11.5c-8,1.9-16.9,4-26.1,6.2
		c0.6,0.6,1,1.3,1.6,1.8c6.1,5.8,12.1,11.7,18.3,17.3c7.9,7,17.1,11.4,28.7,14.7C764.1,549.7,758.1,541.2,751.4,532.3 M581.8,530.2
		c5.2,1.6,10.4,3.3,15.7,4.7c7.8,2.1,14-1.8,20.2-5.2c-0.1-0.5-0.1-1-0.2-1.5c-12.9,0-25.7,0-38.7,0
		C579.7,528.7,580.4,529.2,581.8,530.2 M523.2,522.9c2.1-0.2,4.2-0.5,6.3-0.7c-0.1-0.5-0.1-0.9-0.2-1.4c-2-0.4-4-1.1-6-1.1
		C521,519.8,520.5,520.9,523.2,522.9 M750.8,457.8c-0.4-0.3-0.9-0.6-1.3-0.9c-0.1,0.4-0.2,0.9-0.3,1.3
		C749.6,458.3,750.1,458.3,750.8,457.8z"/>
	<path class="st3" d="M477,512.1c0,0.8,0,1.6-0.4,2.8c-0.5,2.4-0.5,4.4-0.6,6.3c0,0.8,0,1.5,0,2.6c-0.9,1.3-2.2,2-2.6,3.1
		c-1.6,3.8-2.9,7.7-4.8,12c-2.8,2.4-5.2,4.3-7.6,6.3c0-4,0.1-8-0.1-12c0-1-1-1.9-1.8-3.4c0.6-3.7,1.8-6.8,2.5-10
		c4.7-20.9,3.5-41.8-0.3-62.7c0.7-1.5,1.4-3.1,1-4.3c-0.3-0.8-3.1-1.6-3.3-1.2c-1.1,1.4-2.3,3.2-2.5,4.9
		c-0.8,6.6-4.2,10.4-10.6,11.2c0.4-5,0.7-9.7,1.4-14.3c0.4-3.1,1.3-6.2,2.3-9.3c1.7-0.6,3.1-1.7,4.4-1.6c4.9,0.4,6.5-2.6,7.5-6.5
		c2,0.4,3.7,0.8,5.4,1.4c2.6,9.2,5.5,17.8,7.5,26.7c1.8,8,2.6,16.3,3.7,24.8c0.9,1.5,1.8,3.5,3,3.7c20.7,2.6,41.3,4.9,62.4,7.5
		c11.9,0.5,23.4,1.3,34.9,1.1c23.8-0.6,47.6-1.1,71.4-2.8c16.9-1.2,33.8-3.3,50.4-6.8c16.9-3.6,28.1-15.1,32.9-31.6
		c2.6-9,3.8-18.6,4.1-28c0.7-23.3,0.4-46.6,0.6-70.4c0.2-21.1,0.4-41.7,0.2-62.3c-0.1-16.1-0.3-32.2-1.4-48.3
		c-0.5-7.1-3.6-14-5.5-21.3c-0.6-1.8-1.2-3.2-1.4-4.6c2.8,0.2,5.2,0.5,6.7,0.6c2.4-1.5,4.1-2.5,6.2-3.5c2.1,5.7,3.9,11.2,5.6,17.1
		c0.1,4.7,0.9,9.1,0.1,13.2c-1.4,7.7-4.7,15.2-5.6,23c-0.9,7.7,0.2,15.7,0.4,24.1c0,1.8,0,3.1,0,4.5c0.3,36.6,0.5,73.1,1.1,109.7
		c0,2.9,2.6,5.7,3.9,8.5c-0.3,12.4-0.6,24.9-0.9,38.1c-5.3,17.2-15.1,30.3-29.6,40.4c-12.6,5.3-25.5,7.6-39.1,9.1
		c-10,0.8-19.6,1.7-29.2,2.4c-11.1,0.8-22.1,1.5-33.7,2.1c-1.8-0.1-3.1-0.2-4.4-0.2c-22.7,0.7-45.4,2.6-68.2-0.9
		c-10.8-1.7-21.8-2.2-32.7-3c-2.5-0.2-5.1,0.8-7.6,1.3c-2.3,0.5-4.9,2-6.1-1.7c-0.2-0.7-1.1-1.4-1.7-1.5c-5.7-0.9-11.4-1.7-17.5-2.5
		C477.1,508.6,477,510.3,477,512.1z"/>
	<path class="st4" d="M409.9,143.5c-0.6-1.6-1.2-3.2-1.6-4.4c1.7-2,3.2-3.7,4.7-5.9c1-1,2.3-1.5,3-2.4c7.9-11,17.2-20.6,27.9-28.7
		c5.7-4.3,12.1-7.8,18.6-11.7c1.8,0.3,3.2,1.1,4.5,1c4.1,0,7.3,2.9,8,7c0.3,1.6,1.4,3.4,2.7,4.3c2.7,1.9,2.9,3.2,0.2,5.2
		c-2.1,1.6-3.9,3.7-6.5,5.3c-1.2-3-1.5-5.8-2.5-8.4c-0.4-1-3.1-2.3-3.8-1.8c-4.6,2.8-9,6-13.7,9.2c-10.2,8-19.5,16.3-26.4,27.5
		c2,1.3,3.9,2.6,5.9,4.1c3.7,2.9,7.3,5.4,11.8,8.7c0.1-10.9,6.8-17.5,12.1-24.8c0.8-1.1,2.2-1.8,3.3-2.6c0.8,1.3,2.2,2.5,2.4,3.9
		c1.2,13.5,2.1,27,3.2,40.4c0.2,2.8,1.4,5.5,2.1,8.2c0.7,9,0.6,9.1-6.5,11.6c-5.4-7-9.6-14.4-15.1-20.7
		C435,157.4,423.6,148.7,409.9,143.5 M454.8,143.2c-0.1-0.3-0.1-0.7-0.3-0.9c-0.1-0.2-0.4-0.3-0.9-0.5c-2.4,7.7-2.5,15.1,2.7,22.1
		C456,157.2,455.5,150.6,454.8,143.2z"/>
	<path class="st2" d="M460.9,545.6c2.4-2.3,4.8-4.3,7.5-6.3c7,2.8,13.5,6,20.3,8.4c4,1.4,5.7,3.6,6.3,7.7c1.5,9.5,1.3,10.5-7.4,14.7
		c-18.5,8.9-37.5,16.2-58.3,19.7c1.7-10.8,8.5-18.6,15.8-26.2C450.6,558,455.6,551.9,460.9,545.6z"/>
	<path class="st5" d="M649.7,120.3c1.4,1.5,2.9,3,4.6,4.7c0.4,1.6,0.6,3,0.5,4.9c-0.5,0.5-0.7,0.5-1,0.5c0,0,0,0-0.1-0.3
		c-1.7-0.8-3.3-1.2-4.9-1.7c-1.6-2-3.3-4-4.6-6.4C646.3,121.1,648,120.7,649.7,120.3z"/>
	<path class="st6" d="M849.5,362.7c-1.2,6.4-2.9,14-4,13.9c-1.3-0.1-0.5-11.1-1.2-27.6c-1.3-30.9-6.3-47,2.5-53.6
		c1.3-1,2.5-1.5,3.2-1.7c0.8,7.5,1.4,15.4,1.7,23.8C852.2,334.1,851.2,349.3,849.5,362.7z"/>
	<path class="st7" d="M661.2,139.7c-3.7,1-6.9,0.8-6-5c0.7-0.4,1.2-0.4,1.6-0.4C658.2,136,659.6,137.7,661.2,139.7z"/>
	<path class="st0" d="M851.9,443.8c-3.4-4.3-9.4-13-11.3-25.4c-3.4-21.6,7.7-38,10.3-41.7c0.5,12.7,0.8,25.6,0.9,38.7
		C851.9,425,851.9,434.4,851.9,443.8z"/>
	<path class="st4" d="M393.9,121.9c-3.8-0.8-4.2-2.4-0.5-4.6C393.9,118.7,394,120.1,393.9,121.9z"/>
	<path class="st0" d="M851.9,426.9c-1.3-0.2-2.4-0.8-3.6-1.4c0.9-0.4,1.8-0.8,3.1-1.2C851.9,425,852,425.8,851.9,426.9z"/>
	<path class="st0" d="M851.9,407.9c-1-0.3-1.8-0.9-2.6-1.5c0.6-0.4,1.3-0.7,2.2-1.1C851.9,406,852,406.8,851.9,407.9z"/>
	<path class="st7" d="M653.9,130.7c0.2-0.4,0.4-0.4,1-0.4c0.5,0.3,0.7,0.7,0.8,1.3C655.1,131.6,654.5,131.3,653.9,130.7z"/>
	<path class="st5" d="M656.8,134c-0.5,0.3-0.9,0.3-1.6,0.3c-0.2-0.3-0.1-0.6,0.2-1.3C656,132.9,656.5,133.3,656.8,134z"/>
	<path class="st8" d="M466.7,437.2c-1.7-0.3-3.3-0.6-5.3-1.5c-0.7-1.6-1.4-2.6-1.4-3.7c-0.5-12.4-5.7-23.5-9.8-35.3
		c-5.3-15.9-12-30.8-20.2-44.9c-2-3.5-1.6-6,1.7-8.5c4.4-3.4,8.5-7.2,13.1-10.9c1.7-1.6,3-3.1,4.5-4.6c0.1,0,0.2-0.4,0.5-0.6
		c0.9-0.7,1.7-1.1,2.2-1.8c12.8-16.4,24.2-33.1,28.5-54.3c3.8-18.5,5.3-36.6,0-54.9c-1.4-5.7-2.7-11.5-4.2-17.5
		c2.5-0.4,4.7-0.8,7.8-1.3c24.5-1.8,48.1-4,71.7-4.8c24.1-0.8,48.1-0.3,72.2,0.1c1,9.5,2,18.5,3,27.6c2.5,22.9-1.4,45.2-7.6,67
		c-1.4-0.4-2.4-0.7-3.3-1.3c1.1-6.2,2.2-11.9,3.1-17.6c2.7-16.4,3.6-32.7-2.4-48.7c-2.4-6.5-9.6-11.4-17-11.3c0.7,2.1,1.8,4,2.1,6.1
		c1.5,13,3.4,26,4,39.1c0.8,18.8-0.4,37.4-3.8,56c-3.7,20.7-11.2,39.7-22.1,58c-4.8,5.9-9.1,11.7-14,17
		c-13.8,14.9-29.7,27.1-47.8,36.1C504.9,429.3,486.9,437.3,466.7,437.2z"/>
	<path class="st7" d="M839.9,392.3c0,0.4,0,0.9-0.3,1.9c-0.1,1.4,0.1,2.3,0.2,3.5c0,1.1,0,1.9,0,2.6c0,2,0,4.1,0,7
		c0,2.6,0,4.3-0.3,6.3c-0.1,2.8,0.1,5.2,0.3,7.7c-0.3,4.7-0.6,9.4-1,14.9c0.3,1.5,0.6,2.3,0.9,3.1c0,1.1,0,2.1-0.3,3.9
		c-0.4,8.8-0.5,17-0.6,25.1c-2.9,2.9-5.3,7-8.8,8.7c-19.6,9.6-39.5,18.7-59.4,27.8c-2.6,1.2-5.4,1.9-9,3.1c0-9.3,0-18.4,0.4-28.1
		c1.5-2.1,3.4-3.6,3.5-5.2c0.4-5.3,0.2-10.6,0.3-15.9c0.3-13.3,0.9-26.6,0.8-39.9c-0.1-7.6-1.1-15.1-2.1-22.6
		c-0.3-2.6-1.9-5.1-2.9-7.7c-0.3-1.9-0.9-3.9-0.9-5.8c-0.1-12.4-0.1-24.8,0.2-38c0.8-5.2,1.3-9.6,1.7-14c0.6-8,0.9-16,1.6-24
		c1-11.6,2.6-23.2,3.4-34.8c0.4-6.1-0.1-12.3-0.2-18.5c-0.2-13.9-1.4-27.9-0.3-41.7c0.8-9.9-0.5-19-3.4-28.2c1.7-1.1,3.2-2.5,5-3.3
		c6-2.6,12.2-5,18.6-7.2c-1.7,3.7-3.3,7.4-5.7,10.5c-1.8,2.4-4.3,5.2-7,5.9c-5,1.3-5.6,1.4-4.1,6.8c3.2-1.1,6.4-2.2,9.9-3.4
		c0-1.2,0-2.5,0-4.1c0.8,0.2,1.6,0.2,1.7,0.5c1.7,4.6,4.4,3.5,8.2,2.4c4.5-1.3,9.6-0.7,14.2-0.7c-1.1,1.4-2,2.6-3.3,3.7
		c-4.8,0.3-9.1,0.7-13.8,0.9c-2.1,0-3.9-0.1-5.7,0.2c-7.2,1-8.9,3.1-9,10.4c-0.3,23.6-0.8,47.2-0.9,70.8c-0.2,39.9-0.1,79.9,0,119.8
		c0,1.2,0.3,2.4,0.5,3.9c3.9-2.7,7.4-4.9,10.5-7.5c2.2-1.8,4-4.3,6.3-6.5c1.5-1.4,3.3-2.8,3.5-4.3c0.7-6.5,0.8-13.1,1.1-19.7
		c0.3-5.1,0.8-10.2,0.9-15.3c0.2-8,0-16,0.1-24c0-1.2,0.8-2.5,1.3-3.8c2.3,1.6,3.9,2.8,5.6,4.3c0,0.8,0,1.2-0.4,1.7
		c-1.5,2.7-2.8,5.3-3.3,8c-0.1,0.7,2.4,2,3.7,3.4c0,10.8,0,21.2-0.3,31.6c-0.6,0.4-0.9,0.8-1.2,1.3c0.5,0.2,1,0.5,1.5,1.2
		c0,3.3-0.2,6.1,0.1,8.9c0.4,5,4.5,7.1,8.2,3.9s7.3-6.9,9.7-11.1c2.7-4.7,5.4-10.2,5.8-15.4c1-16.4,0.9-32.8,1.3-49.3
		c0.1-4.2,0-8.3,0.5-12.5c2-1,3.6-1.9,5-3c1.2-0.9,2.3-2,3.5-3c0,6.7,0,13.4,0,21c0,13.6,0,26.3,0,39c0,0.4,0,0.9,0,2.1
		c0.7,11,1.3,21.2,2.1,31.4C838.3,386,839.3,389.1,839.9,392.3z"/>
	<path class="st9" d="M409.5,143.5c14.1,5.2,25.5,13.9,34.9,24.9c5.4,6.3,9.7,13.7,14.7,20.9c2.8,7,5.3,13.8,8.1,21.3
		c4.4,16.5,7.7,32.3,3.4,48.7c-3.7,1.5-3.6,3.1-0.7,5.3c-0.3,1.4-0.6,2.5-1.3,3.7c-2.5,3.1-4.6,6.1-6.5,9.2
		c-0.9,1.5-1.4,3.2-2.4,4.9c-0.8,1.4-1.2,2.6-1.9,4c-0.7,1.1-1.2,1.9-2,3c-1.4,2.1-2.6,4-3.9,6c-0.4,0.7-0.6,1.3-1,2
		c-1.5,1.8-2.6,3.4-3.8,5c-5.8,7.9-12.3,15-20.4,20.7c-0.6,0.4-1.8-0.1-2.7-0.6c0.6-3.4,2.5-7.2,1.3-9.1c-1.5-2.3-5.6-2.9-7.6-3.8
		c-1-2.7-1.8-4.6-2.5-6.8c0.9-2.9,1.8-5.4,3.1-8.1c6.9-3.9,15.4-4.2,21.7-11.3c-2.8-0.5-4.3-0.8-6.1-1.3c-1.6-0.5-3.1-0.6-4.5-1.2
		c0-1.8,0.1-3.2,0.2-4.7c-0.1-0.4-0.3-0.6-0.5-0.9c0,0,0,0,0-0.3c-0.5-0.7-0.9-1.1-1.7-1.7c-5-3.2-10-3.5-15.5-1.9
		c-0.7-0.1-1.1-0.1-1.7-0.4c-2.2-0.6-4.2-0.9-6.5-1.2c-1.8-0.7-3.3-1.4-4.5-2.4c5.7-0.6,11.3-1,16.8-1c9.1-0.1,16.4,3.5,22.1,10.7
		c1.7,2.2,4.8,4.3,6.7-0.6c0.2-0.6,1.6-0.7,2.4-1.1c1,3.4,1.9,6.4,2.9,9.8c10.3-2.1,7.4-9.7,6.4-14.6c3.9-1.9,6.9-3.4,11-5.4
		c-2.2-1.5-3-2-3.8-2.5c-4.8-3-11.6-0.6-15.7-5.8c-1.6-2-3.8-3.9-6.1-4.9c-7-3.1-10.6-8.6-12.2-15.5c1.1,0,1.9,0,2.8,0.3
		c6,8.4,15.1,11.8,23.7,17.7c0-2.5,0-3.8,0.3-5.3c1.8-4.9-0.3-7.1-4.8-8.2c-2.9-4.5-3.2-7.7,2-10.7c3.6-2.1,2.7-7.1-1.4-9.4
		c-3.9-2.2-8.1-3.9-12-6.1c3.9-1,7.6-1.8,11.4-2.2c4.5-0.5,7.9-6.3,5.7-10.4c-3.1-5.6-6.4-11.1-9.7-16.7c-2.8-4.8-4.9-10.5-8.7-14.3
		c-8.9-8.9-20.3-14-32-18.2c-6.5-2.3-10.5-0.2-15.1,5.9c-0.7,0.9-2.5,1.1-3.8,1.1c1.8-6.5,3.5-12.7,5.1-18.8
		c2.1,0.2,4.1,0.3,6.9,0.5c1.5,0.2,2.3,0.4,3.2,0.6C405,142.6,407,143.1,409.5,143.5z"/>
	<path class="st10" d="M628,192.2c-24.1,0-48.2-0.5-72.2,0.3c-23.7,0.8-47.3,3.1-71.4,4.7c0.2-2.1,0.9-4.2,1.9-6.7
		c12.2-2.2,23.9-3.9,36.1-5.6c17.6-0.8,34.9-1.9,52.1-2.4c19.8-0.6,39.6-0.8,59.8-1.1c5.3,0.2,10.1,0.1,14.9,0.5
		c12.6,1.1,25.2,2.4,38.2,3.8c3,0.7,5.6,1.3,8.1,1.8c8.2,1.7,22.7,6.2,34.5,17.4c12.9,12.2,16.7,27.5,17.9,34.7
		c-2.3,0.8-4.5,1.7-6.8,2.5c-0.8,0.1-2.1,0.3-3.6,0s-2.7-0.8-3.4-1.2c-1.3-5.2-4.9-16.8-15.2-26.7c-6.2-5.9-12.6-9.2-17.1-11
		c0,0,0.1,0,0-0.2c-0.6-0.5-1-0.7-1.8-1.2c-1.2-0.7-2-1.2-3-1.5C674.5,194,651.2,193.3,628,192.2z"/>
	<path class="st5" d="M804.9,190.3c-4.8,0.2-9.9-0.3-14.4,1c-3.9,1.1-6.5,2.2-8.2-2.4c-0.1-0.3-0.8-0.3-1.7-0.5c0,1.6,0,2.9,0,4.1
		c-3.4,1.2-6.6,2.3-9.9,3.4c0.2-1.2,0.2-3-0.5-4.9c-1.7-4.8-6.6-5.7-6.8-7.7c-0.2-2.1,4.5-5.3,24.4-10.6c7.3-2.4,14.6-4.6,22-6.3
		c4.8-1.1,9.7-1.9,14.6-2c7.7-0.2,11.5,3.8,11.5,11.7c0,29.1,0,58.2-0.3,88c-0.1,5.2,0.1,9.7,0.3,14.2c0,3.4,0,6.7,0,10.6
		c-0.9,69.7-2,104.5-3.5,104.5c-1.4,0-3.1-32.8-5.1-98.5c-0.4-41-0.4-81.6-0.4-123.1c-1.5,1.8-2.3,3-3.3,4.1
		C818.3,181.7,813.7,188.7,804.9,190.3z"/>
	<path class="st11" d="M651.9,155.8c16.1-8.4,33.2-2.9,49.8-3c15.1-0.1,30.2,1.6,45.2,2.8c13.9,1.1,27.8,2.5,41.6,3.8
		c0.6,0.1,1.2,0.3,3.2,0.8c-3.1,1-4.9,1.5-6.7,2c-8.6,2.4-17.1,5.9-25.8,6.9c-10.4,1.2-21.1,0.6-31.7,0.2c-21.9-0.8-43.8-2-65.8-3
		c-1,0-2-0.2-3.4-0.8c-1.2-1.6-2-2.8-2.8-3.9C654.3,159.7,653.1,157.7,651.9,155.8z"/>
	<path class="st12" d="M651.5,155.7c1.6,2,2.8,4,4.1,6c0.7,1.2,1.5,2.3,2.3,3.8c-12.3,0.4-24.6,0.3-37,0.6
		c-27.1,0.8-54.2,1.9-81.3,2.9c-5.3,0.2-10.6,0.9-16.3,1.1c-0.4-0.5-0.4-0.7-0.5-1.2c-2.1-0.8-4.1-1.5-6.1-1.4
		c-4.9,0.1-9.9,0.5-14.9,0.5c-2.3-3.8-4.6-7.2-6.9-10.6c9.6-1.4,19.3-2.9,28.9-4.2c1.2-0.2,2.6,1,3.9,1.5c3.7,1.5,7.4,4.1,11.2,4.2
		c25.7,0.7,51.4,1.3,77.1,0.9C627.8,159.7,639.5,157.1,651.5,155.7z"/>
	<path class="st13" d="M466,177.2c-0.8-2.4-2-5.1-2.3-7.9c-1.2-13.5-2.1-27-3.2-40.4c-0.1-1.3-1.5-2.6-2.4-3.9
		c-1.1,0.9-2.5,1.5-3.3,2.6c-5.3,7.3-11.9,13.9-12.1,24.8c-4.6-3.3-8.1-5.8-11.8-9.1c5.6-8.4,11.4-16,16.9-23.8
		c1.6-2.3,2.6-5,3.8-7.6c4.4-3.1,8.8-6.3,13.4-9.1c0.7-0.4,3.4,0.8,3.8,1.8c1.1,2.5,1.4,5.4,2.1,8.5c3.2,15.6,4,31,1,46.4
		C470.9,165.4,468.2,171,466,177.2z"/>
	<path class="st10" d="M470.9,259.3c3.9-16.4,0.7-32.2-3.5-48.4c1.5,0.2,3,0.8,4.6,1.6c2.5,1.2,5.1,2.5,8,3.8
		c5.7,18.3,4.2,36.4,0.4,54.9c-4.3,21.2-15.7,37.9-28.5,54.3c-0.5,0.6-1.3,1-2.3,1.8c-0.4,0.3-0.6,0.5-0.6,0.5
		c-1.3,1.5-2.7,3.1-4.7,4.5c-0.3-1.4-0.3-2.9,0.3-4c4.9-8.1,9.8-16.2,15-24c2.5-3.7,2.9-6.9,0.1-10.7c3.1-8.6,6.1-16.9,9.1-25.2
		c0.3-1.1,0.6-2.2,1.1-4C470.4,262.2,470.7,260.7,470.9,259.3z"/>
	<path class="st14" d="M742.3,222.4c-9.5-20.2-25.9-30.5-46.8-34.9c-2.6-0.6-5.2-1.1-8.2-2.2c-0.4-2.5-0.4-4.4-0.4-6.3
		c20.4,1.8,40.8,3.6,62.7,5.6c0,18,0,35.8-0.2,54.1c-0.6,0.5-1,0.5-1.4,0.5C746.2,233.6,744.4,228.1,742.3,222.4z"/>
	<path class="st15" d="M801.9,330.4c0.3,3.4,0.7,5.1,0,5.4c-0.6,0.3-1.7-0.6-2.4-1.2c0,0-0.8-0.6-1.3-1.3
		c-2-2.6-32.3-186.9-30.6-80.2c0.1,6.2,0.7,12.4,0.2,18.5c-0.8,11.6-2.4,23.2-3.4,34.8c-0.7,8-1,16-1.6,24
		c-0.3,4.4-0.9,8.9-1.7,13.6c0.9,14.9,1.9,32.3,1.7,32.3s-1.9-17.6-2.9-36.2c0,0-1.5-25.5-1-95.2l0,0c0,0,0.2-6.4,0.3-8.3l0,0
		c-1.2-4.7-0.4-9.3-0.4-9.3c0.4-1.8,0.3-13.1,0-35.8c0-4.7-0.1-5.3,0.3-6.5c2.7-7.5,13.5-9.2,28.3-12.8
		C815.3,165.6,800.6,315.5,801.9,330.4z"/>
	<path class="st12" d="M547.9,138.3c4.9-0.4,9.8-1.1,14.8-1.2c22.4-0.3,44.7-0.3,67.6-0.3c2.9,2.2,5.3,4.2,7.7,6.2
		c0.9,0.7,1.7,1.5,3.5,3c-31.5,4.3-62,3-93.1,1.4C547.9,144.2,547.9,141.2,547.9,138.3z"/>
	<path class="st5" d="M748,422.1c-1.4-2.6-3.9-5.4-4-8.2c-0.6-36.6-0.8-73.1-1.1-109.7c0-1.3,0-2.7,0.4-4.5c2.4-0.5,4.5-0.4,6.5-0.4
		c-0.3,35.9-0.6,71.8-0.9,107.7c0,4.5-0.5,8.9-0.8,13.8C748.1,421.5,748,421.7,748,422.1z"/>
	<path class="st16" d="M633.9,181.3c-19.8,0.4-39.6,0.5-59.4,1.2c-17.3,0.6-34.5,1.6-52.2,2.1c-0.4-1-0.4-1.7-0.5-2.3
		c37.4-2,74.7-4.1,112.5-5.7C634.5,178.4,634.2,179.9,633.9,181.3z"/>
	<path class="st5" d="M761.9,388.7c1,2.1,2.6,4.6,2.9,7.2c1,7.5,2,15.1,2.1,22.6c0.1,9.2-0.2,8.3,0,10.4
		c1.1,15.1,11.3,18.9,14.5,31.2c4,15.5-6,33.8-11.4,33.5c-2-0.1-4.7-2.7-7.6-14.4c-0.3-7.1-0.4-10.1-0.4-10.1l0.4,10.1
		c-0.1,0-3.3-36.6-0.9-82.2C761.5,393.5,761.7,390.7,761.9,388.7z"/>
	<path class="st15" d="M749.8,312c-2,0.7-4,0.7-6.4,0.7c-0.2-4.1-0.5-10.4-1-18.1c-0.7-10-0.9-10.8-1.1-14.1
		c-0.7-15.1,4.1-19.4,6.7-39.1c1.6-12.5,1.3-21.2,1.3-20.9c0.1,15.1,0.2,30.2,0.3,45.5C749.8,281.3,749.8,296.7,749.8,312z"/>
	<path class="st17" d="M634.4,181.3c-0.2-1.5,0.2-2.9,0.5-4.7c17.2,0.4,34.3,1.2,51.7,2.1c0.3,2.1,0.3,4,0.4,6.3
		c-12.6-0.8-25.1-2.1-37.7-3.2C644.5,181.5,639.6,181.5,634.4,181.3z"/>
	<path class="st6" d="M836.3,349.2c-0.4-12.6-0.4-25.3-0.4-38.5c1.5-0.6,2.9-0.8,5-1c-0.2,2.3,0.1,4.6-0.6,6.4
		c-1.7,4.5-0.5,8.2,1.9,12.1c0.8,1.2,0.6,3.1,0.6,4.7c0.1,1.7-0.4,3.5-0.1,5.2C843.8,344.4,842.8,346.5,836.3,349.2z"/>
	<path class="st11" d="M494.5,157.4c2.7,3.4,5,6.8,7,10.7c-6.7,1.6-13.1,2.7-19.5,3.8C481.4,163.2,484.3,159.7,494.5,157.4z"/>
	<path class="st18" d="M545,104.1c7.3,6.3,14.6,12.6,22.5,19.3c-9,3.3-10.3,3-14.9-3.6c-3.4-4.8-6.5-9.9-9.4-15.2
		C544,104.2,544.5,104.1,545,104.1z"/>
	<path class="st16" d="M481.8,172.2c6.7-1.4,13-2.5,19.8-3.8c5.3-0.4,10.2-0.9,15.2-1c2,0,4,0.7,5.8,1.5c-0.7,0.8-1.3,1.1-1.8,1.5
		c-8.9,1-17.7,2-26.6,3.1c-4.5,0.6-9,1.3-14.3,2.1C480.8,174,481.2,173.3,481.8,172.2z"/>
	<path class="st6" d="M840.2,392.1c-0.9-3-1.8-6.1-2.1-9.3c-0.9-10.2-1.5-20.4-2.1-31c6.7,2.3,5.8,8.5,5.9,13.8
		c0.1,6.6-0.6,13.3-0.9,20.3c0,0.9,0,1.3,0,2.4s0,1.6,0,2C840.7,390.8,840.6,391.4,840.2,392.1z"/>
	<path class="st18" d="M521.5,182.2c0.5,0.7,0.5,1.3,0.5,2.2c-11.7,2.1-23.5,3.8-35.6,5.6c-1.7-0.3-2.9-0.6-4.1-0.9
		c0-0.6,0-1.2,0.1-1.7C495,184.4,508.1,183.8,521.5,182.2z"/>
	<path class="st7" d="M638.3,142.9c-2.7-1.7-5.1-3.7-7.6-6.1c3.1-0.7,6.7-0.5,9.6-1.7c3.1-1.3,5.6-4.1,8.5-6.5
		c1.7,0.2,3.3,0.6,5,1.4c-1.8,1.1-4.1,1.4-5.5,2.7c-2.5,2.3-4,5.3,1.5,7.7c-0.4,0.4-0.7,0.8-1.1,1.2
		C645.3,141.9,641.9,142.2,638.3,142.9z"/>
	<path class="st19" d="M465.4,17.7c1.5-1.5,2.7-3.2,4.2-3.5c3.2-0.6,6,0.6,6.6,4.3c0.6,3.2-1.2,5.2-4.3,5.4
		C467.9,24.3,465.3,22.5,465.4,17.7z"/>
	<path class="st12" d="M749.1,34.8c3.5-1.4,6.7-2.6,10-3.3c0.6-0.1,2.5,1.8,2.4,2.6c-0.5,3.8-3,5.6-6.9,5.8
		C751.1,40.1,748.7,39.2,749.1,34.8z"/>
	<path class="st17" d="M547.6,138.3c0.4,2.9,0.4,5.8,0.4,9.1c-0.9,0.4-2.1,0.7-2.8,0.3c-2.2-1.1-5.4-2.2-6-4c-1.2-3.5,2.8-3.1,4.8-4
		C545.1,139.3,546.1,138.8,547.6,138.3z"/>
	<path class="st18" d="M649.7,119.9c-1.7,0.7-3.5,1.1-5.6,1.6c-1.9-0.8-3.5-1.8-5-3.3c1.7-5.8,5.5-3.4,8.8-2.9
		C648.5,116.7,649.1,118.2,649.7,119.9z"/>
	<path class="st5" d="M647.8,115c-3.1-0.1-6.9-2.6-8.9,3c-1.2-1.1-2.2-2.6-3.2-4C640.7,109.1,642.6,109.2,647.8,115z"/>
	<path class="st6" d="M836.2,278c-0.2-2.1-0.4-4.2-0.5-6.5c-0.3-5.6-0.2-10.7,0.1-15.5c0.1,5,0.2,10,0.3,15
		C836.2,273.4,836.2,275.7,836.2,278z"/>
	<path class="st5" d="M545,103.7c-0.5,0.4-1,0.4-1.9,0.5c-2.3-2.4-4.2-4.8-6.2-7.6c0-0.4,0.1-0.5,0.1-0.5
		C539.6,98.6,542.3,101,545,103.7z"/>
	<path class="st11" d="M521.1,170.5c0.1-0.4,0.7-0.8,1.5-1.2c0.3,0.2,0.3,0.3,0.3,0.8C522.4,170.4,521.9,170.5,521.1,170.5z"/>
	<path class="st5" d="M536.9,96.3c-0.1-0.1-0.3-0.3-0.4-0.5c0.1,0,0.2,0.1,0.4,0.3C537,96.2,536.9,96.3,536.9,96.3z"/>
	<path class="st20" d="M387.6,160.3c1.3-0.5,3.1-0.6,3.8-1.6c4.6-6.1,8.6-8.3,15.1-5.9c11.7,4.2,23.1,9.3,32,18.2
		c3.8,3.8,5.9,9.5,8.7,14.3c3.3,5.5,6.6,11,9.7,16.7c2.2,4.1-1.2,9.9-5.7,10.4c-3.8,0.4-7.5,1.2-11.7,2.1c-2.9-0.3-5.2-1.5-7.6-1.4
		c-2,0-4,1.4-6.3,2.3c-4.8,0.5-4.2,3.8-3.3,6.3c1.9,5,4.4,9.8,6.6,14.7c2,7,5.6,12.5,12.6,15.5c2.3,1,4.5,2.9,6.1,4.9
		c4.2,5.2,10.9,2.8,15.7,5.8c0.8,0.5,1.6,1,3.8,2.5c-4,2-7,3.4-11,5.4c1.1,5,4,12.6-6.4,14.6c-1-3.3-1.9-6.4-2.9-9.8
		c-0.9,0.4-2.2,0.5-2.4,1.1c-1.9,4.9-5,2.8-6.7,0.6c-5.7-7.2-13-10.8-22.1-10.7c-5.5,0.1-11,0.4-17,1c-0.8,0.3-1.1,0.2-1.9,0
		c-1.3-0.1-2.2,0-2.9-0.3c-5.6-2.2-10.1-1.7-14,3.8c-2.6,3.7-6.9,6.4-10.8,9.4c-2.5-0.5-4.5-1.3-6.6-1.2c-15,0.1-30.1-1.3-45.5,1.5
		c-2.5-0.2-4.5-0.3-6.4-0.2c-3.4,0.2-5.1,1.8-4.4,5.7c1.5,0,2.9,0,4.1,0c-1.5,2.4-3.9,4.5-4.1,6.7c-0.4,4.8,0.4,9.7,0.8,14.9
		c2,1.1,3.9,2.4,5.8,2.5c19,1,37.9,3.1,56.9,0c2.2-0.4,4.1-2.5,6.5-4.1c4.1-0.7,7.9-1.2,11.7-1.3c-0.3,2.4-0.4,4.4-0.8,6.3
		c-1.6,7.5-3.4,15.1-5.2,22.9c-1.1,2.6-2,4.8-3,7.5c-0.7,2.9-1.3,5.4-2.4,8.1c-7.8,0.4-15.2,0.6-22.9,0.5c-1.4-0.4-2.6-0.5-4.2-0.7
		c-1.8,0-3.2,0-4.7-0.2c-0.7-0.1-1.3,0.1-2.2,0.2c-1.4-0.3-2.5-0.6-3.7-1.3c-4.4-1.1-8.7-1.8-13.3-2.6c-2.8-0.4-5.2-0.8-7.8-1.4
		c-4.2,0.9-8.6,1.4-12,3.5c-3.2,1.9-2.2,6.3,1.2,8c8.9,4.4,17.9,8.6,26.9,13c3.1,1.5,5.9,4,9.2,4.7c5.3,1,10.9,0.7,16.3,1.3
		c3.9,0.4,7.8,1.3,11.7,2.4c0,2.6,0.1,4.8,0.1,6.9c0,13.7,0.3,27.5-0.5,41.2c-0.2,3.2-3.7,7.7-6.7,8.8c-3.4,1.2-6-2.8-8-6.2
		c-1.4-2.4-3.9-4.1-6.1-6.4c-5.2-7.4-11.1-14.1-15.1-21.8c-4.4-8.2-11.1-13.8-17.7-19.8c-2.3-2.1-5.5-3.5-8.4-5.4
		c-0.8-1.4-1.4-2.6-2.6-4.7c-3,3.3-5.7,6.1-8.7,9c-1.7,2.7-4.1,5.2-4.3,7.9c-1,14.8,7,26.3,15.6,37.1c4.3,5.4,9.9,9.8,14.6,14.8
		c5.1,5.4,9.8,11.2,14.8,16.8c6,6.8,12.2,13.5,18.2,20.2c3.7,4.1,5,4.1,8.9-0.1c0.5-0.5,1.5-0.7,2.2-1c3,10.8,5.5,21.6,0.7,33
		c-4.6,0.5-8.7,1.6-12.5,0.8c-22.6-4.5-41.1-17-56.4-33.4c-9.1-9.8-16.3-21.7-22.8-33.5c-10.5-19.3-17.4-40.1-22.8-61.4
		c-1.6-6.3-5.7-12.1-9-17.8c-0.7-1.2-3.3-1.4-5-2c0.2,1.7,0.4,3.3,0.5,5.4c-0.4,6-1,11.6-1,17.2c0.1,15.5,2.6,30.6,8.3,45.1
		c2.5,6.5,5.1,12.9,7.6,19.8c-0.3,9.3,3.8,16.3,9.1,22.8c2.3,2.9,4.1,6.3,6.4,9.2c1.6,2.1,3.6,4,5.4,6.3c3.1,4.7,5.6,9.7,9.4,13.3
		c4.2,4,9.8,6.5,14.5,10.1c1.8,1.4,2.9,3.9,4,6.1c1.1,2.1,1.7,4.6,3,6.6c2.3,3.5,0.5,8.7-3.7,9.5c-7.6,1.5-15.2,2.9-22.8,4.1
		c-4.8,0.8-9.7,1.3-14.9,2c-21.8-4.5-42.8-10.1-61.8-22.3c-6.5-5.8-13.5-10.7-19.1-16.9c-9.1-10.1-17.3-21.1-20.9-34.5
		c-3.6-13-6.6-26.2-9.8-39.7c-1.4-8.8-2.6-17.2-4.2-25.5c-0.4-1.9-2-3.4-3.4-5.5c-1.6,0.6-3.8,1.2-4.2,2.4
		c-1.8,5.3-3.9,10.8-4.6,16.3c-3.4,27.5,2.1,53.2,16.4,77c7.9,13.2,18,24.4,29.5,34.6c9.8,8.8,20.9,15.5,33.1,19.8
		c17.3,6.2,35.7,8.6,53.9,8.7c21.9,0.1,43.7-2.5,65.6-3.9c6.5-0.7,13-1.7,19.6-1.9c11.4-0.4,22.8-0.6,34.1-0.3
		c5.7,0.2,11.4,1.7,17.2,2.6c7.1,1.2,11.8,7.3,11.8,16.5c-1.5,0.9-2.6,1.3-3.6,1.8c-9.2,4.6-18.1,10-27.7,13.6
		c-18.1,6.7-37.4,5.4-56.1,5.8c-30.4,0.7-60.9-0.3-91.8-0.6c-5.4-0.4-10.4-0.3-15.3-1.2c-12-2.1-24.4-3.3-35.9-7.2
		c-24.8-8.5-45.5-23.3-59-46.1c-5.9-9.9-9.6-21-14.3-32c-1-10.8-2.9-21.2-2.7-31.5c0.2-11.3,1.6-22.8,3.8-33.9
		c2.2-10.9,5.3-21.9,9.7-32.1c9.1-20.7,18.7-41.3,31.6-60c7.5-10.9,14.9-21.8,22.6-32.6c3.3-4.6,7-8.8,10.7-13
		c2.1-2.4,4.8-4.3,7.2-6.4c1.7,4,3.1,8.3,5.3,12c1.2,1.9,4,3.8,6.1,3.9c1.7,0.1,3.5-2.6,5.7-4.6c0.9-2.9,1.7-5.3,1.9-7.7
		c1.1-15.8,1.3-31.8,3.4-47.5c3.5-25.7,16.9-46.7,34.3-65.3c0.6-0.6,2.1-0.4,3.2-0.6c3.8,3.5,7.7,6.9,13.7,5.5
		c-0.8-2.8-1.4-5.1-1.8-8.1c0.9-1.5,1.5-2.3,2-3.1c6.6-9.5,12.7-19.5,19.9-28.4c5.3-6.6,12.1-12,18.6-18
		c11.6-7.1,22.5-14.8,34.3-20.8c7.5-3.9,16.2-5.5,24.4-7.6c0.3,5.7,1.4,11-2.9,15.5c-1.5,1.6-1.4,4.6-2.4,7.1c-2.1,1.1-3.8,2.1-6,3
		c-1.6,0.6-3,1.2-4.2,2c-4,2.8-8,5.6-11.8,8.7c-2.7,2.1-5.2,4.5-7.5,7.1c-2.2,2.6-4,5.5-5.9,8.3c-2.5,3.9-4.9,7.9-7.3,11.9
		c0,0,0,0-0.3,0c-1.1,1.3-1.9,2.7-2.6,4c0,0,0,0-0.3,0c-8.3,2.4-8.7,10.2-11.8,16.5c-0.7,1.9-1.3,3.4-2.3,5.9
		c4.4-1.6,7.9-3.4,11.7-4c11.2-1.8,22.4-3.4,33.7-4.4c3.8-0.3,4.9-1.7,5.3-4.9c4.7,1,9.1,2,13.6,3.4c0.7,3.4-0.8,7.1,4,10
		C377.2,179,382.4,169.6,387.6,160.3z"/>
	<path class="st21" d="M335.9,547.5c-21.9,1.8-43.8,4.3-65.6,4.2c-18.2-0.1-36.5-2.5-53.9-8.7c-12.2-4.3-23.3-11-33.1-19.8
		c-11.4-10.3-21.5-21.5-29.5-34.6c-14.3-23.8-19.8-49.5-16.4-77c0.7-5.5,2.7-11,4.6-16.3c0.4-1.2,2.6-1.8,4.1-2
		c0.4,13.1,0.7,25.5,1,38.4c1.2,11.2,4.8,21.3,8.5,31.5c9.1,25,25.2,44.1,47.5,58.7c19.3,12.8,41,15.6,63.4,17.2
		c15.2-0.6,30-1.2,44.8-2.1c8.6-0.5,17.1-1.5,25.6-2.2C336.6,538.8,336.3,543,335.9,547.5z"/>
	<path class="st22" d="M197.9,288.8c-2.4,2.5-5,4.4-7.2,6.8c-3.8,4.2-7.5,8.4-10.7,13c-7.7,10.8-15.1,21.7-22.6,32.6
		c-12.9,18.7-22.5,39.3-31.6,60c-4.5,10.2-7.5,21.2-9.7,32.1c-2.3,11.1-3.6,22.6-3.8,33.9c-0.2,10.3,1.7,20.7,2.3,31.6
		c-1.3,4.5-4.8,5.2-7.9,6.7c-1.9-7.4-4.6-14.6-5.4-22.1c-2.6-22.9-0.2-45.3,6.2-67.5c6.4-22,17.2-41.6,29-60.8
		c8.1-13.1,16-26.4,25.2-38.8c9.1-12.2,19.6-23.4,29.5-35c2.3-2.7,4.2-2.4,5.1,1.3C196.8,284.6,197.4,286.6,197.9,288.8z"/>
	<path class="st23" d="M460.8,457.3c4.2,20.8,5.4,41.7,0.7,62.6c-0.7,3.2-1.9,6.3-2.9,9.9c-4.2,9.5-7.6,19-15.9,26.3
		c-4.5-0.1-8.4-0.4-12.2-0.6c-1.8-2.9-3.9-5.6-5.4-8.7c-2.8-5.7-7.8-8.5-13.5-9.8c-6.6-1.6-13.3-2.4-20.4-4c1.1-2.8,2.7-5.1,4.2-7.4
		c1.1-1.6,2.3-3.2,3.8-5c5.1-2.9,10.1-3.5,15.5-3.6c4.3-0.1,9.1-1.1,12.9-3.1c17.7-9.1,27.1-24.2,30.3-43.8
		c0.5-5.1,0.9-9.9,1.3-14.9C460,456,460.4,456.6,460.8,457.3z"/>
	<path class="st21" d="M255.1,446.7c-2.6-6.4-5.1-12.9-7.6-19.3c-5.7-14.5-8.2-29.6-8.3-45.1c-0.1-5.6,0.6-11.2,1.3-17.4
		c1.3,0.3,2.7,0.9,3,1.8c1.9,6.5,3.8,13.1,5.3,19.7c1.8,7.9,2.7,16.2,5,23.9c7.5,24.5,18.2,47.4,35.3,66.9
		c9.3,10.6,19.7,19.7,32.8,25.3c7.9,3.3,16,6.2,24.1,9.3c0.4,2,0.4,4.3,1.3,6c2.5,4.9,2.2,6.1-3.2,9c0.5-6.3-4.4-5.6-7.7-6.8
		c-9.1-3.3-18.7-5.7-27.1-10.3c-12-6.6-22-16-31.2-26.6c-4-6-8.1-11.5-11.8-17.4C262.4,459.6,258.8,453.1,255.1,446.7z"/>
	<path class="st24" d="M239.9,585.4c30.4,0.3,60.9,1.3,91.3,0.6c18.8-0.5,38.1,0.9,56.1-5.8c9.6-3.6,18.5-9,27.7-13.6
		c1-0.5,2.1-0.9,3.5-1.4c1.2,9.2,0.9,9.2-5.2,12.4c-17.4,9.1-36.4,12.1-55.3,15.7c-30.5,5.7-61.3,4-92,3.7
		c-9.9-0.1-19.8-1.3-29.8-2.5C237.5,591.2,238.7,588.3,239.9,585.4z"/>
	<path class="st25" d="M257.8,178.9c-1.1,0.6-2.6,0.4-3.2,1.1c-17.4,18.6-30.8,39.6-34.3,65.3c-2.1,15.7-2.3,31.7-3.4,47.5
		c-0.2,2.4-1,4.7-1.8,7.3c-8.3-18.4-10.9-37.7-7.5-57.7c4.8-28.1,18.7-51.5,37.9-72c2.6-2.8,6.1-4.9,9.7-7.8
		C256.2,168.5,257.1,173.5,257.8,178.9z"/>
	<path class="st26" d="M346.5,511.8c-8.5-3.1-16.6-6-24.5-9.4c-13.1-5.5-23.5-14.6-32.8-25.3c-17.1-19.5-27.7-42.4-35.3-66.9
		c-2.4-7.8-3.2-16-5-23.9c-1.5-6.6-3.4-13.2-5.3-19.7c-0.3-0.9-1.7-1.6-2.9-2.2c-0.5-1.5-0.7-3.2-0.9-4.8c1.7,0.7,4.3,0.8,5,2
		c3.4,5.8,7.4,11.5,9,17.8c5.4,21.3,12.3,42.1,22.8,61.4c6.5,11.8,13.7,23.7,22.8,33.5c15.3,16.4,33.7,28.9,56.4,33.4
		c3.7,0.7,7.9-0.3,12.3-0.5c-3.9,4.7-9.8,4.8-15.5,4.9C350.6,512.4,348.8,512.1,346.5,511.8z"/>
	<path class="st27" d="M367.3,473.7c-0.7,0.7-1.6,0.8-2.1,1.4c-3.8,4.1-5.2,4.1-8.9,0.1c-6.1-6.8-12.2-13.5-18.2-20.2
		c-5-5.6-9.7-11.3-14.8-16.8c-4.7-5.1-10.3-9.4-14.6-14.8c-8.6-10.8-16.6-22.3-15.6-37.1c0.2-2.7,2.6-5.2,4.5-7.7
		c3.8,6.6,6,13.6,10.2,19.2c8.6,11.4,17.7,22.5,27.5,32.9c11.4,12.1,22.1,24.6,31,38.7C366.6,470.7,366.9,472,367.3,473.7z"/>
	<path class="st26" d="M239.4,585.4c-0.8,2.9-2,5.8-3.5,8.9c-15.6-2.7-31-5.1-46.2-8.7c-14.5-3.4-28.1-9.3-40-18.6
		c-14.2-11.1-27-23.6-35.4-39.8c-3.4-6.5-5.1-13.9-7.6-21.3c3-1.8,6.6-2.6,7.9-6.6c5.1,10.5,8.8,21.6,14.7,31.5
		c13.6,22.9,34.3,37.7,59,46.1c11.4,3.9,23.8,5.1,35.9,7.2C229,585.1,234,585,239.4,585.4z"/>
	<path class="st21" d="M366.8,469.4c-9.3-14.1-20-26.6-31.4-38.7c-9.8-10.4-18.9-21.5-27.5-32.9c-4.2-5.6-6.5-12.6-9.9-19.3
		c2.4-3.1,5-5.9,8-9.2c1.2,2.2,1.8,3.3,2.6,5.1c9.9,20.4,23.7,36.9,40.2,51.5c7.3,9.1,14.5,17.8,21.8,26.9c3.2,7,6.4,13.8,9.5,20.5
		c-1.8-0.6-3.6-1.2-5.4-1.8C372.2,470.8,369.7,470.1,366.8,469.4z"/>
	<path class="st23" d="M363.9,121.1c0.6-2.4,0.6-5.4,2.1-7c4.4-4.6,3.2-9.8,3.1-15.8c4-1.9,7.9-3,11.8-4.1c0.4,11.6,1,23.1,1,34.7
		c0,5.8-1,11.5-1.8,18.1c-2.7,11.5-6.6,21.8-12.4,31.3c-4.4-1-8.7-1.9-13.5-3.4c-0.1-4.9,0.3-9.2,1-13.5c1.1-0.6,1.9-1.3,3-2.3
		c0.9-2.1,1.5-3.9,2.1-5.8c1.2-3.7,2.4-7.3,3.6-11c0,0,0-0.1,0.3-0.1c0.5-0.3,0.7-0.5,0.7-0.9c0,0,0,0,0.3-0.2
		c0.5-0.7,0.7-1.3,1.2-2c0.9-2.7,6.4-4.8,0.7-8.1c-4.9-3.8,2.3-6.1,0.4-9.6C366.4,121.4,365.2,121.3,363.9,121.1z"/>
	<path class="st23" d="M278.3,483.4c9.1,10.3,19.1,19.8,31.1,26.4c8.4,4.6,18,7,27.1,10.3c3.3,1.2,8.2,0.4,7.3,6.8
		c-0.3,2.3-0.7,4.2-1,6.2c-1.7,0.4-3.4,0.8-5.5,1.4c-8.9,1-17.4,1.9-26,2.4c-14.8,0.9-29.6,1.5-44.9,1.9c-0.5-0.8-0.5-1.2-0.5-1.5
		c4.8-0.6,9.7-1.2,14.5-2c7.6-1.3,15.2-2.7,22.8-4.1c4.2-0.8,5.9-6,3.7-9.5c-1.3-2-1.9-4.4-3-6.6c-1.2-2.1-2.2-4.7-4-6.1
		c-4.7-3.6-10.3-6.1-14.5-10.1c-3.8-3.6-6.3-8.6-9-13.3C277.2,484.6,277.8,484,278.3,483.4z"/>
	<path class="st21" d="M457.9,470.3c-3.1,19.3-12.5,34.4-30.2,43.5c-3.8,2-8.6,3-12.9,3.1c-5.4,0.1-10.5,0.7-15.9,3.6
		c-7.5,2.4-14.2,4.7-21,6.9c-1-1.4-1.9-2.8-3-4.6c5-2.6,10.2-4.7,15.1-7.3c3-1.6,5.5-4.1,8.2-6.2c5.5-0.2,4.7-3.6,4.1-7.5
		c8.8,3.1,17.3,4.2,25.3-1.4c6-4.1,9.9-9.9,12.7-16.9c1.7-3.6,3.2-6.9,5-10.2C449.8,472.3,453.8,471.3,457.9,470.3z"/>
	<path class="st21" d="M391.9,476.3c-0.1-6.8-0.7-7.5-6.3-6.5c-0.7-4.4-1-8.5-1.1-13c1.1-22.7-2.5-44.5-4.3-66.5
		c1.1,0,1.9,0,2.7,0.2c0,0.4,0,0.6,0,1.2c0.5,11.3,1.8,13,11.1,15.9c5.1,23,3.1,45.8,1.4,68.7C394,476.3,392.9,476.3,391.9,476.3z"
		/>
	<path class="st24" d="M309.9,127.3c-6.2,5.9-13,11.3-18.3,17.9c-7.2,9-13.3,18.9-19.9,28.4c-0.6,0.8-1.2,1.6-2,2.7
		c-1.8-5.2-3.3-10.7-4.8-16.3c-0.2-0.6,0-1.4,0.3-1.9c10.9-15.7,23.5-29.7,39.4-40.4c0.7-0.4,1.5-0.6,2.7-0.5c-0.1,2.1-0.6,3.9-1,5
		C307.8,124.3,308.9,125.8,309.9,127.3z"/>
	<path class="st13" d="M395.8,476.3c1.3-22.8,3.3-45.7-1.8-69.1c-1.2-4.2-2.1-7.7-2.9-11.5c0-0.7,0-1.1,0.3-1.4
		c1.4,0.7,2.4,1.3,3.5,2.4c2.2,9.2,5.4,17.9,6.3,26.8c1.2,11.7,1.1,23.6,0.8,35.4c-0.2,11.1-1.5,22.1-2,33.2c-0.1,1.5,1,4.1,2.2,4.5
		c4.8,1.5,10.3,4.2,14.8,3.1c8.6-2,17-5.8,19.7-15.9c0.2-0.9,0.9-1.7,1.7-2.5c0.8,0.8,1.3,1.6,1.8,2.4c-2.6,6.7-6.5,12.6-12.5,16.7
		c-8,5.5-16.5,4.5-25.3,1c-2.7-1.9-5.1-3.7-7.6-6.1c-0.2-0.5-0.3-0.9-0.3-0.9c0.1-1.4,0.1-2.8,0.3-5
		C395.1,484.5,395.5,480.4,395.8,476.3z"/>
	<path class="st28" d="M310.2,127.1c-1.4-1.4-2.4-2.9-3.8-4.8c0.3-1.1,0.9-2.9,1.3-5.1c13.6-12,30.4-16.6,47.2-21
		c8.2-2.1,16.6-4.7,25.6-2.3c-3.6,1.5-7.5,2.6-11.5,4c-8.4,2.9-17.1,4.5-24.6,8.4C332.8,112.4,321.8,120,310.2,127.1z"/>
	<path class="st4" d="M367.8,178.7c5.7-9.9,9.6-20.1,12.3-31.2c3.1-1.1,6-1.9,9.2-2.8c0.5-1.4-1.9-5.4,3.2-3.8
		c-1.4,6.4-3.1,12.5-4.9,19c-5.2,9.8-10.4,19.1-15.8,28.8C367.1,185.8,368.6,182.1,367.8,178.7z"/>
	<path class="st29" d="M397.9,509.1c-2.4,2.2-4.8,4.7-7.8,6.3c-4.9,2.6-10.1,4.7-15.5,7.2c-5.4,3.7-10.5,7.1-16,10.9
		c-0.8,0.7-1.2,1-1.6,1.3c-3.2-5.5-0.8-13.3,4.8-14.4c8.8-1.7,14.9-7.6,22.1-13.2c3.5-0.3,6.8,0.8,8.1-3.1
		C393.8,505.9,395.6,507.5,397.9,509.1z"/>
	<path class="st13" d="M377.7,527.6c7-2.5,13.8-4.8,20.9-7c-0.8,1.6-2,3.2-3.1,4.9c-1.6,2.3-3.1,4.6-4.6,7.3c0,0.4,0,0.7-0.2,0.7
		c-0.4,0-0.6,0-0.8,0c-7.2,0-14.5,0-21.7,0c-0.2-0.5-0.4-1.1-0.6-1.6C370.9,530.5,374.2,529.2,377.7,527.6z"/>
	<path class="st28" d="M384.4,457.2c0.3,4,0.5,8.1,0.9,12.6c-0.4,4.2-1,7.9-1.5,11.7c0,0.2-0.5,0.3-1.4,0.9c-0.7-3-1.3-5.7-2.1-8.8
		c-3.3-7.1-6.4-13.8-9.3-20.9c1.5,0.3,3.1,0.6,3.8,1.6C377.3,458.3,380.4,459.3,384.4,457.2z"/>
	<path class="st15" d="M395.4,476.3c0,4.1-0.3,8.2-0.9,12.7c-6.7-4-7.8-6.3-5.4-11.5c0.3-0.6,1.3-0.8,2.3-1.2
		C392.9,476.3,394,476.3,395.4,476.3z"/>
	<path class="st22" d="M430.6,555.9c3.8-0.1,7.6,0.1,11.8,0.4c-2.6,2.6-5.6,5.2-9.2,8.4C432.1,561.1,431.4,558.7,430.6,555.9z"/>
	<path class="st30" d="M391.8,504c-1.1,4.2-4.4,3-7.6,3.2c1.3-2.2,3-4.3,4.8-6.6C390,501.8,390.8,502.8,391.8,504z"/>
	<path class="st4" d="M402.9,141.8c-0.8,0.2-1.6,0-2.7-0.3c1.1-2.8,2.6-5.4,4.2-8.4C408.2,137.2,403.1,138.8,402.9,141.8z"/>
	<path class="st21" d="M366.2,533.8c-0.8,0-1.3-0.2-1.8-0.4c0.1-0.3,0.3-0.5,0.4-0.8C365.3,532.9,365.9,533.2,366.2,533.8z"/>
	<path class="st21" d="M357,535.2c0.3-0.5,0.7-0.8,1.4-1.3C358.2,534.3,357.7,534.9,357,535.2z"/>
	<path class="st21" d="M390,533.5c0.1-0.1,0.3-0.1,0.7,0c0.2,0.1-0.2,0.3-0.2,0.3S390.1,533.7,390,533.5z"/>
	<path class="st15" d="M394.3,494.5c0.1-0.1,0.3,0.3,0.2,0.5C394.2,495.1,394.1,494.9,394.3,494.5z"/>
	<path class="st17" d="M751.6,532.6c6.5,8.7,12.6,17.2,17.4,28.2c-11.6-3.3-20.8-7.7-28.7-14.7c-6.3-5.6-12.3-11.5-18.3-17.3
		c-0.6-0.5-1.1-1.2-1.6-1.8c9.2-2.2,18.1-4.3,26.1-6.2C748.1,524.6,749.7,528.4,751.6,532.6z"/>
	<path class="st14" d="M665.4,511.1c9.4-0.2,20.6-1.3,33-4.1c7.1-1.6,13.5-3.6,19.2-5.6c4.1-2.8,7.3-5.6,9.5-7.8
		c2.5-2.4,5.6-5.4,8.7-10.1c1-1.6,2.6-4,4-7.2c3.6-8,3.1-12,7.4-16c1.4-1.3,2.6-2.4,3.7-2.1c2.1,0.6,3,7.5-1.2,33.3
		c-0.1,2.9,0.2,5.2,0.2,6.9c0.1,2.3,0.1,4.6,0,6.9c-0.1,1.1-1.7,2.9-2.9,3.1c-12,2.2-24,4.1-36.5,5.7c-2.7-1-4.9-1.9-7.1-2.2
		c-2.4-0.3-5.1,0.6-7.2-0.3c-4.3-1.9-5.7-0.1-6.1,3.8c-3.7,0.3-7.4,0.6-11.6,0.5c-12.7,1.2-19.2,1.1-19.6-0.4
		C658.6,514.5,660.8,513.1,665.4,511.1z"/>
	<path class="st18" d="M477.1,509.4c-0.5-1.3-0.2-2.5,0.1-3.3c6.2,0.9,11.9,1.6,17.5,2.5c0.7,0.1,1.5,0.9,1.7,1.5
		c0.4,1.1,1.7,2.1,1.6,2.2c-0.2,0.2-3.8-2.6-3.3-3.7c0.5-1.1,4.7-0.1,9.5,0.7c6.5,1.1,13.1,1.4,19.6,2.2c0,0,9.8,1.2,19,2
		c0,0,27.8,2,68.2,0.9c1.3,0,2.7,0,4.4,0.5c13.7-1.7,18.5-2,18.6-1.4s-4.6,2.1-18.1,5.4c-13.4-0.3-26.9-0.5-40.3-0.8
		c-9.3-0.2-18.6-0.3-27.9-0.8c-18.6-0.9-37.2-3-55.8-3.3C488.2,513.8,478.8,513.7,477.1,509.4z"/>
	<path class="st17" d="M616.5,518.9c-0.5-1.3-0.5-2.4-0.5-3.9c11.1-1.1,22.2-1.7,33.2-2.6c9.6-0.7,19.2-1.6,29.2-2.4
		c0.1,1.8-0.2,3.6-0.5,5.8c-9.7,1.1-19.3,2.1-29,2.6C638.2,518.9,627.6,518.8,616.5,518.9z"/>
	<path class="st16" d="M581.5,530c-1.1-0.7-1.9-1.3-2.6-1.8c12.9,0,25.8,0,38.7,0c0.1,0.5,0.1,1,0.2,1.5c-6.3,3.4-12.4,7.3-20.2,5.2
		C592.3,533.4,587.1,531.7,581.5,530z"/>
	<path class="st17" d="M666.3,516.7c1-0.8,2.7-2,4.8-3.1c8.5-4.2,16.5-2.8,20.7-2.5c18.8,1.1,33.9-19.1,35.3-17.6
		c0.6,0.7-2.2,4.9-17.2,20.4c-3.1,0.3-6.3,0.6-9.5,0.9C688.6,515.8,677.3,516.4,666.3,516.7z"/>
	<path class="st0" d="M840.3,400.3c-0.4-0.8-0.4-1.5-0.2-2.7c0.5-0.7,0.7-0.9,0.8-1.3c1.8-1.2,3.5-2.4,6.2-4.3
		c0.5,2.2,1.1,5.1,2.1,9.3c-0.9,1.8-2.5,3.2-5.5,0.4C842.9,401,841.7,400.7,840.3,400.3z"/>
	<path class="st6" d="M839.3,468.2c-0.2-8.1-0.1-16.2,0.3-24.6C841.8,451.6,843.9,459.9,839.3,468.2z"/>
	<path class="st6" d="M478.9,512.7c4.1,0.1,8.3,0.5,12.7,1.2c-1.4,1.6-3.1,4.1-4.8,4.1C483.5,518.1,479.9,517.4,478.9,512.7z"/>
	<path class="st6" d="M522.9,522.7c-2.4-1.8-1.9-3,0.5-3c2,0,4,0.7,6,1.1c0.1,0.5,0.1,0.9,0.2,1.4
		C527.4,522.4,525.3,522.6,522.9,522.7z"/>
	<path class="st0" d="M838.9,468.3c-0.9-18.3-1.7-37-2.2-56.1c-0.7-25.8-0.9-51-0.7-75.5c7.1,21.2,14.7,54,10.5,93.3
		C845.1,444.4,842.2,457.2,838.9,468.3z"/>
	<path class="st6" d="M839.6,413.5c0.3-0.3,0.8-0.3,1-0.3c0.1,2.5,0,5-0.5,7.7C839.7,418.8,839.5,416.3,839.6,413.5z"/>
	<path class="st1" d="M476.2,521.1c-0.2-1.7-0.1-3.7,0.4-5.7C476.7,517.1,476.6,519,476.2,521.1z"/>
	<path class="st0" d="M750.7,458.1c-0.6,0.2-1.1,0.2-1.6,0.1c0.1-0.4,0.2-0.9,0.3-1.3C749.9,457.2,750.3,457.5,750.7,458.1z"/>
	<path class="st6" d="M840.9,396c-0.1,0.6-0.3,0.9-0.8,1.2c-0.4-0.8-0.5-1.6-0.5-2.7C840.2,394.7,840.6,395.2,840.9,396z"/>
	<path class="st6" d="M840.1,439.1c-0.6-0.6-0.9-1.4-1.2-2.5C839.5,437.1,839.9,438,840.1,439.1z"/>
	<path class="st0" d="M841.2,390.2c-0.3-0.4-0.3-0.8-0.3-1.6c0.5-0.1,1,0.1,1.6,0.4C842.1,389.4,841.8,389.8,841.2,390.2z"/>
	<path class="st31" d="M627.9,192.6c23.2,0.7,46.5,1.4,69.2,7.7c0.9,0.3,1.8,0.8,3.1,1.8c0.8,0.8,1.3,1,1.8,1.2c0,0-0.1,0-0.1,0.4
		c4.3,9.1,6,18.6,6,28.3c0,15.3,0,30.6-1,45.8c-0.7,11.4-2.4,22.8-4.8,34c-4.6,21.5-11.4,42.2-22.3,61.9
		c-25,47.4-62.6,80.2-112.4,99.6c-6.5,2.1-12.5,4.2-19,6.3c-23.3,6.2-46.9,7.4-70.4,9.4c-1.2-8.2-2-16.4-3.8-24.5
		c-2-8.9-4.9-17.6-7.5-26.7c20.1-0.3,38.1-8.3,55.5-17c18-9,34-21.3,47.8-36.1c4.9-5.3,9.2-11.1,14.3-17.1c1.7-1.6,3.2-2.7,4.1-4.2
		c3.7-5.9,7.5-11.7,10.8-17.8c3.3-6.2,5.9-12.7,9.1-19.1c0.9-0.5,1.7-0.9,1.9-1.5c4.6-12.5,9-24.9,13.5-37.4
		c5.8-22,9.8-44.3,7.2-67.2C630,211.1,629,202.1,627.9,192.6z"/>
	<path class="st30" d="M527.4,483.8L527.4,483.8c16.4-2.9,21-4.4,21-4.4c3.4-1.1,7.9-2.9,13.1-5.9c2.2,1.5,4.3,3.1,6.6,4.7
		c2.1,1.5,4.3,3.1,6.2,4.9c-2.3,1.7-4.4,3.1-6.5,4.6c0.3,0.4,0.6,0.8,0.9,1.2c4.2-1.3,8.5-2.4,12.5-4.1c23.7-10.2,46.6-21.8,65.9-39
		c7.2-6.5,13.7-13.7,20.7-20.8c0.3-0.4,0.5-0.6,1.1-0.7c0.6-0.3,0.8-0.7,1.4-1.2c15.9-17.1,28.7-36,40.1-55.9
		c1.6-0.2,2.9-0.2,3.8-0.8c4.6-2.8,8.7-2.5,12.1,1.6c3.1,3.7,4.8,2.3,6.7-1.1c1-1.8,2.9-3.2,4.5-4.7c-0.1,23.3,0.1,46.6-0.6,69.9
		c-0.3,9.4-1.5,19-4.2,28c-4.9,16.5-16.6,28-34,31.6c-17.1,3.5-34.7,5.6-52.1,6.8c-24.6,1.7-49.2,2.3-73.9,2.8
		c-11.9,0.3-23.8-0.6-36.1-1.5c3-2.8,4-6.9,2.7-10.4C537.6,485.1,532.5,482.5,527.4,483.8z"/>
	<path class="st32" d="M680,373.3c10.7-19.3,17.6-40.1,22.1-61.6c1.2-5.7,3.6-18.1,4.8-34c0.4-5.6,1.3-21-0.3-41.1
		c-1.1-12.8-2.9-23.9-4.7-33c4.6,1.9,10.8,5.2,17.1,10.6c4.3,3.7,7.5,7.6,9.9,10.8c0.8,1.7,1.4,3.1,1.7,4.9
		c-1.8,0.1-3.3-0.2-5.1-0.5c-1.4-0.9-2.6-1.8-4.2-3.1c-0.5,1.7-0.8,2.9-1.3,4.5c-0.6,16.2-0.4,32.1-1.9,47.8
		c-1.4,15.6-4.5,31.1-7.1,47c-5,13.2-9.5,26.2-14.5,39c-1.6,4.1-4.3,7.8-6.9,11.7C686.1,375.2,683,374.2,680,373.3z"/>
	<path class="st29" d="M725.7,229.4c1.5,0.3,2.9,0.6,4.8,0.8c2.3,7,5.4,13.9,5.9,21c1.2,16,1.3,32.2,1.4,48.3
		c0.2,20.6-0.1,41.3-0.2,62.3c-1.6,2-3.4,3.4-4.4,5.2c-1.8,3.4-3.5,4.8-6.5,1.1c-3.3-4.1-7.3-4.3-11.7-1.6c-0.9,0.6-2.2,0.5-3.7,0.4
		c3.6-10.1,7.6-19.9,11.8-29.9c3.3-11.8,6.8-23.2,9.5-34.8c4.4-18.9,4-37.9,0.2-57.2C730.5,239.5,728.1,234.4,725.7,229.4z"/>
	<path class="st32" d="M548.5,479.4c-1.6,6.6-3.6,13.3-5.6,20.3c-20.7-2-41.4-4.4-62-6.9c-1.1-0.1-2-2.2-3-3.7
		C501.6,486.9,525.2,485.6,548.5,479.4z"/>
	<path class="st28" d="M440.3,483.5c-0.7-0.5-1.2-1.3-2-2.5c4.8-14.1,4.2-28.3,3.2-42.3c-0.7-9.6-2-19.7-5.6-28.5
		c-7.5-18.2-16.7-35.7-25-53.7c2-0.5,4.9-1.5,5.3-0.8c4.4,6.1,9.2,12.2,12.2,19c5.4,12.4,9.5,25.4,14.1,38.5
		c0.4,2.1,0.9,3.9,1.3,5.6c1.7,8.5,3.5,17,5.2,25.5c-0.7,3.1-1.5,6.2-2,9.3c-0.6,4.6-0.9,9.2-1.5,14.6c-0.3,2.2-0.5,3.7-0.7,5.1
		C443.5,476.6,442.1,479.9,440.3,483.5z"/>
	<path class="st0" d="M449.4,444.2c-2.1-8.5-3.8-17-5.5-25.5c-0.4-1.8-0.9-3.5-1.2-6c0.5-1.3,0.8-1.9,1.1-2.5
		c1.6-3.5,6.6-6.1,3.5-11.2c0-0.1,1.9-1.3,2.9-2c4,11.4,9.3,22.5,9.7,34.9c0,1.1,0.7,2.1,1.1,3.6c-0.7,4.4-2.3,7.4-7.2,7
		C452.6,442.6,451.2,443.6,449.4,444.2z"/>
	<path class="st0" d="M445.3,473.3c-0.2-1.4,0-2.9,0.3-4.7c6.6-1.5,9.9-5.4,10.7-11.9c0.2-1.8,1.3-3.5,2.5-4.9
		c0.3-0.3,3.1,0.5,3.3,1.2c0.4,1.2-0.4,2.8-1,4.3c-0.8-0.6-1.2-1.3-1.8-2.3c-0.4,5.1-0.7,9.8-1.3,14.9
		C453.8,471.3,449.8,472.3,445.3,473.3z"/>
	<path class="st24" d="M451.4,112.1c-0.9,2.4-1.9,5.2-3.5,7.5c-5.5,7.8-11.3,15.4-17,23.5c-2-0.9-3.9-2.2-5.8-3.5
		C431.9,128.4,441.3,120,451.4,112.1z"/>
	<path class="st27" d="M454.9,143.6c0.6,7,1,13.6,1.5,20.2c-5.2-7-5.2-14.4-2.7-22.1c0.4,0.3,0.7,0.3,0.9,0.5
		C454.7,142.5,454.7,142.9,454.9,143.6z"/>
	<path class="st33" d="M450.2,396.8c-0.9,1.1-2.8,2.3-2.8,2.4c3.1,5.1-1.9,7.6-3.5,11.2c-0.3,0.6-0.6,1.2-1.1,2.1
		c-4.8-12.4-9-25.3-14.3-37.8c-2.9-6.8-7.8-12.8-12.2-19c-0.5-0.7-3.4,0.4-5.7,0.9c-4,1.4-7.3,2.5-10.7,3.2c1-4.4,2-8.4,3.3-12.6
		c1.9-1.1,3.6-1.8,5.1-2.8c3.4-2.2,6.8-4.5,10.3-6.8c0.1,0,0.3-0.2,0.7-0.2c8.5-7.2,17.2-13.8,24.5-21.7
		c6.1-6.5,10.7-14.6,15.9-21.9c2.9,3.5,2.5,6.6,0,10.4c-5.3,7.8-10.1,15.9-15,24c-0.7,1.1-0.7,2.6-0.7,4.1c-3.9,3.8-8,7.6-12.4,11
		c-3.2,2.5-3.7,5.1-1.7,8.5C438.2,366,444.9,380.9,450.2,396.8z"/>
	<path class="st8" d="M603.3,337.2c6.4-20,9.9-30.7,9.9-30.7l0,0c0,0,4.3-10.5,7-20.6c0.9-3.5,2-8.4,2.8-14.4c0.6,0,1.4,0.1,2.2,0.2
		c0.9,0.2,1.7,0.4,2.4,0.7c-1.1,7.1-2.8,15-5.3,23.4C617,313,609.8,326.8,603.3,337.2z"/>
	<path class="st33" d="M449.1,327.8c-0.1,0,0.1-0.3,0.2-0.3C449.3,327.4,449.2,327.8,449.1,327.8z"/>
	<path class="st34" d="M804.7,190.6c9-1.9,13.6-8.8,18.9-14.8c1-1.1,1.8-2.2,3.3-4.1c1.2,70.5,1.1,100.8,0.6,114.6
		c-0.2,5.7-0.7,14.3-0.7,27.7c-0.1,8.6-0.3,17.2-0.3,25.8c0.1,7.9-0.6,11.4-0.9,17.2c-0.3,5.3-3,10.7-5.8,15.4
		c-2.4,4.2-6,7.9-9.7,11.1c-3.8,3.2-7.8,1.1-8.2-3.9c-0.2-2.8,0-5.7-0.1-9.3c0-1.2,0-1.7,0-2.1c0-10.4,0-20.7,0-32c0-4.3,0-7.7,0-11
		c0-0.1,0-0.3,0-0.5c0,0,0-0.8,0-1.7c0-0.8-0.4-56.5-0.9-132.7C802.2,190.5,803.5,190.5,804.7,190.6z"/>
	<path class="st34" d="M794.4,384.9c-2,2.9-5.8,7.5-11.9,11.2c-3.8,2.3-7.4,3.5-10.1,4.2c-0.2-1.5-0.5-2.7-0.5-3.9
		c0-39.9-0.1-79.9,0-119.8c0.1-23.6,0.6-47.2,0.9-70.8c0.1-7.3,1.8-9.3,9-10.4c1.8-0.3,3.6-0.2,5.7,0.3c4.6,28.4,8.2,60.7,9.4,96.4
		C798.1,326.1,796.9,357.3,794.4,384.9z"/>
	<path class="st15" d="M793.9,408.6c0,0-2.2-8.6-3.3-17.6c-5.5-42.4-2.1-99.8-2.1-99.8c1.3-22.8,2.1-55.2-0.5-95.4
		c4.4-0.8,8.7-1.1,13.5-1.5c-0.7,75.8-0.2,110.8,0.5,128.5c0.7,17.3,2,29,0,47.9c-0.9,8.7-2,13.6-1.4,22.4c1,14.3,4.9,18.9,7.9,33.4
		c3.8,18.1,2.9,36,0.9,36.2c-2.1,0.3-6.4-24.5-13.1-45.8C795.9,415.8,794.9,412.8,793.9,408.6z"/>
	<path class="st15" d="M801.6,368.3c0.3,0.4,0.3,0.9,0.3,1.6c-0.5,0.1-1-0.1-1.5-0.4C800.7,369.2,801,368.8,801.6,368.3z"/>
	<path class="st35" d="M418.9,337.4c0,0-0.2,0.2-0.7,0.1c-2.5,0.8-4.5,1.4-6.4,2.5c-9.6,5.4-19.8,8.7-31.3,9.3c-1.5,0-2.6,0-3.6,0
		c0.7-2.5,1.3-5,2.3-8.1c11.7-2.9,18.9-11.2,26-19.3c2.4-2.7,4.5-3.6,7.7-2.5c3.6,1.2,7.2,2.3,10.7,3.5c0.9,0.1,2.1,0.6,2.7,0.2
		c8-5.6,14.6-12.8,20.4-20.7c1.2-1.6,2.4-3.2,4.1-4.7c-0.1,2.1,0,4.8-1.4,6.2c-9,9.7-18.3,19.1-27.4,28.7
		C420.8,334,420,335.8,418.9,337.4z"/>
	<path class="st4" d="M426,215.3c2-0.8,3.9-2.2,5.9-2.2c2.3,0,4.7,1.1,7.4,1.8c4.5,2,8.7,3.6,12.6,5.8c4.1,2.3,5,7.2,1.4,9.4
		c-5.2,3.1-4.9,6.2-2.1,11.1c-0.5,2.6-0.9,4.4-1.2,5.5c2.4,1,4.1,1.8,5.9,2.5c0,1.3,0,2.6,0,5.1c-8.6-5.9-17.7-9.3-23.7-18
		C430,228.8,428,222,426,215.3z"/>
	<path class="st36" d="M423.8,322.5c-3.6-0.8-7.2-1.9-10.8-3.1c-3.2-1.1-5.4-0.2-7.7,2.5c-7.1,8.1-14.3,16.4-26,18.9
		c0.6-2.1,1.6-4.4,3-7.1c10.1-6.9,18.7-14.5,24.9-24.7c0.5-0.2,0.6-0.5,0.9-1c0.5-0.7,0.8-1.2,1.3-1.9c2.1-1.1,3.8-2.1,5.6-3
		c0.7,1.9,1.5,3.8,2.5,6.5c2,0.9,6.1,1.5,7.6,3.8C426.2,315.3,424.3,319.2,423.8,322.5z"/>
	<path class="st36" d="M387.9,304.3c-3.8,0.5-7.5,1.1-12,1.7c-1.4,0-2.2-0.1-2.9-0.5c0-1.4,0-2.4,0.4-3.6c8.2-2.6,15.9-5.1,24-7.5
		c1-0.2,1.8-0.4,2.9-0.8c3.3-1.2,6.2-2.2,9.4-3.2c1.2-0.3,2.2-0.6,3.5-0.9c4.2-1.2,8-2.2,11.7-3.5c3-1,5.9-2.4,8.9-3.6
		c1.5,0.3,3.1,0.5,5.9,1c-6.4,7.2-14.9,7.4-22.1,11.3c-3.7,1.1-6.7,2.1-10.2,3.1C400.7,299.9,394.3,302.1,387.9,304.3z"/>
	<path class="st13" d="M419.3,337.4c0.7-1.6,1.6-3.4,2.9-4.8c9.1-9.6,18.4-19,27.4-28.7c1.3-1.4,1.3-4.1,1.6-6.4
		c-0.1-0.8,0.1-1.3,0.9-2.1c1.7-2.2,2.8-4.2,3.9-6.2c0.5-0.9,1-1.8,2.1-2.9c1-1.5,1.5-2.8,1.9-4.1c0.7-1.6,1.2-3.3,2.1-4.8
		c1.9-3.1,4.1-6.1,6.5-9.2c-2.6,8.3-5.6,16.6-8.7,25.2c-5.4,7.7-9.9,15.7-16,22.2C436.5,323.6,427.8,330.2,419.3,337.4z"/>
	<path class="st15" d="M399.9,293.6c-0.7,0.2-1.5,0.4-2.8,0.4c-0.2-6.4-2.2-11.3-7.1-15.5c-0.9-1.5-2.2-2.7-2.5-4
		c-0.5-1.8-0.2-3.8-0.2-5.7c2.1,0.8,4.2,1.6,6.1,2.6c0.6,0.3,0.6,1.5,1.1,3c1.1-2.8,2-4.9,2.8-7c0.3,0.1,0.6,0.2,1.2,0.3
		c1.7,0.7,3.2,1.3,4.8,2.3c-2.2,3.8-1.3,6,2.8,6.9c-0.2,1-0.2,1.7-0.3,2.8c0.4,2.6,0.7,4.8,0.7,7.2
		C404.2,289.3,402.1,291.4,399.9,293.6z"/>
	<path class="st34" d="M406.9,286.7c-0.3-2.2-0.7-4.4-0.7-7.1c1.1-1.5,1.9-2.6,2.7-4c0.1-0.8,0.2-1.3,0.5-1.7c1-0.8,1.8-1.7,2.5-2.5
		c5.2-1.6,10.3-1.3,15.3,2.2c0.8,0.9,1.2,1.3,1.6,1.7c0,0,0,0,0,0.3c0.1,0.4,0.2,0.6,0.3,0.7c-0.1,1.4-0.1,2.8-0.4,4.8
		c-5.1-1.2-8.7,2.6-13,3.7c-1.3,0.3-2.1,3-3.1,4.6c-0.9,0.3-1.9,0.6-3.2,0.5C408.5,288.6,407.7,287.7,406.9,286.7z"/>
	<path class="st13" d="M425.6,215.3c2.4,6.7,4.4,13.5,6.3,20.6c-0.8,0.4-1.5,0.4-2.7,0.4c-2.6-4.9-5.1-9.7-7-14.7
		C421.4,219.1,420.8,215.8,425.6,215.3z"/>
	<path class="st24" d="M413.3,289.4c0.6-1.6,1.3-4.2,2.7-4.6c4.2-1.1,7.8-4.8,13-3.3c1.7-0.1,3.1,0,4.7,0.5
		c-2.8,1.5-5.7,2.9-8.7,3.9C421.3,287.2,417.4,288.2,413.3,289.4z"/>
	<path class="st24" d="M407.8,297.7c3-0.9,6.1-1.9,9.5-2.8c-0.5,2.5-1.5,5-2.4,7.9c-1.8,1.3-3.5,2.3-5.9,3.1
		C408.2,303.1,408,300.4,407.8,297.7z"/>
	<path class="st4" d="M409.2,273.8c-0.1,0.5-0.1,1-0.5,2c-1,0.6-1.7,0.7-2.3,0.8c-4.3-0.7-5.1-2.8-2.6-6.6c2.1,0,4.1,0.3,6,1.1
		C409.6,272.4,409.4,273.1,409.2,273.8z"/>
	<path class="st18" d="M456.1,248.9c-2-0.5-3.7-1.2-6.1-2.3c0.3-1.2,0.7-3,1.3-5.2C455.9,241.8,458,244,456.1,248.9z"/>
	<path class="st35" d="M455.6,289.4c-0.8,1.8-1.9,3.8-3.3,5.8C453,293.4,454.2,291.5,455.6,289.4z"/>
	<path class="st13" d="M470.6,259.3c0.1,1.4-0.1,2.9-0.5,4.7C467,262.4,466.8,260.8,470.6,259.3z"/>
	<path class="st22" d="M409.4,273.9c-0.1-0.8,0.1-1.5,0.5-2.5c0.6-0.2,1-0.2,1.7-0.1C411.2,272.2,410.5,273.1,409.4,273.9z"/>
	<path class="st35" d="M459.6,282.4c-0.1,1.1-0.6,2.4-1.3,3.8C458.4,285,458.8,283.8,459.6,282.4z"/>
	<path class="st24" d="M428.9,274.9c-0.4-0.1-0.8-0.5-1.3-1.2C428,273.8,428.4,274.2,428.9,274.9z"/>
	<path class="st24" d="M429.4,276.1c-0.2,0-0.3-0.2-0.5-0.6C429.1,275.5,429.3,275.7,429.4,276.1z"/>
	<path class="st1" d="M363.6,121.3c1.6,0,2.8,0.1,3.8,0.2c1.9,3.5-5.3,5.8-0.4,10c-0.3,1.7-0.8,2.8-1.6,3.9
		c-5.4,7.9-13.6,14.6-10.5,26c-0.4,4.4-0.8,8.7-1.1,13.5c0.1,3.8-1,5.1-4.8,5.4c-11.3,1-22.5,2.6-33.7,4.4c-3.8,0.6-7.3,2.5-11.7,4
		c1-2.5,1.6-4,2.6-6c4.2-5.8,8-11,11.8-16.3c0,0,0-0.1,0.3-0.2c1.1-1.4,1.9-2.6,2.7-3.9c0,0-0.1-0.1,0.3-0.2
		c5.4-6,10.4-12,15.6-17.8c3-3.3,6.1-6.6,9.3-9.6c3.8-3.6,7.9-7,11.8-10.4C359.7,123.3,361.5,122.4,363.6,121.3 M340,164.3
		c0,0,0-0.1-0.7,0.2c-4.9,4.1-9.9,8.2-14.8,12.3c0.3,0.4,0.5,0.7,0.8,1.1c2.6-0.8,5.1-1.7,8.5-2.5c2.3-0.1,4.5-0.2,6.3-0.3
		c1.6-5.4,3-10.2,4.4-14.9c-0.3-0.2-0.7-0.4-1-0.6c-0.9,1.3-1.8,2.6-3.1,4.2C340.2,163.8,340.1,164.1,340,164.3z"/>
	<path class="st23" d="M384.5,456.8c-4.2,2.5-7.2,1.5-9.7-2.4c-0.6-1-2.3-1.4-3.9-2c-7.6-8.7-14.8-17.4-22-26.9
		c0.4-1.9,0.7-3.1,1-4.3c2,2,4.5,3.8,5.9,6.1c2,3.3,4.5,7.4,8,6.2c3-1.1,6.6-5.6,6.7-8.8c0.8-13.7,0.4-27.4,0.5-41.2
		c0-2.2,0-4.3,0.4-6.9c5,0.2,7.1-1.3,5.6-6.2c-0.3-1-0.1-2.2,0.3-3.6c7.7-2.2,15.1-4.1,22.5-5.7c-3.1,4.3-6.1,8.5-9.6,12.2
		c-3.3,3.4-2.9,6.6,0,9.5c3.8,3.8,5.3,8.2,4.7,13.4c-1.1-0.7-2.1-1.3-3.7-2.2c-0.6-0.5-0.7-0.6-0.9-1.1c-0.5-1.1-0.9-1.9-1.4-3
		c0-0.2-0.1-0.7-0.1-1.1c-0.9-6.4-6.1-6.8-11.4-8c0.8,3.1,1.6,6.3,2.4,9.4C382,412.3,385.6,434.1,384.5,456.8z"/>
	<path class="st35" d="M390.1,278.8c4.8,3.8,6.8,8.8,6.7,15.2c-7.5,2.7-15.2,5.2-23.8,7.7c-21.2-1.2-41.2-4-59.2-15
		c-1.8,3.9-0.5,6.2,2.4,7.5c5.3,2.3,10.7,4.4,15.8,6.9c-3.3,0.6-6.4,1.3-9.4,1.1c-5.9-0.4-11.4,0.2-15.6,5.1
		c-0.3-4.9-1.1-9.8-0.7-14.6c0.2-2.3,2.6-4.4,4.1-6.7c-1.2,0-2.5,0-4.1,0c-0.7-3.9,1-5.5,4.4-5.7c2-0.1,4,0.1,6.4,0.6
		c2,1,3.6,1.9,5.3,2.3c16.1,3.3,32.4,1.9,49,1.2c2.9,0.3,5.3,0.7,7.7,0.9C384.3,285.8,388.8,285,390.1,278.8z"/>
	<path class="st26" d="M202.8,521.7c-22-14.4-38.1-33.5-47.2-58.5c-3.7-10.2-7.3-20.3-8.2-31.6c2.4-2.7,4.4-5,6.5-7.3
		c3.2,13.1,6.2,26.3,9.8,39.3c3.7,13.4,11.8,24.4,20.9,34.5c5.6,6.2,12.5,11.1,19.1,17.3C203.5,517.9,203.1,519.8,202.8,521.7z"/>
	<path class="st13" d="M376.9,367.1c0,1.1-0.3,2.3,0.1,3.4c1.5,4.9-0.6,6.4-5.6,5.8c-4.3-0.7-8.2-1.5-12.1-1.9
		c-5.4-0.6-11-0.2-16.3-1.3c-3.2-0.6-6.1-3.2-9.2-4.7c-8.9-4.4-17.9-8.7-26.9-13c-3.4-1.7-4.4-6-1.2-8c3.4-2.1,7.8-2.6,11.8-3.4
		c-0.2,0.5-0.4,0.7-0.9,1.2c-2.5,0.8-4.9,1.3-6.9,2.3c-1.3,0.6-2.7,2-3.1,3.3c-0.2,0.7,1.4,2.5,2.5,3c16.3,6.6,32.5,13.4,50.5,13.7
		C365.4,367.5,371.1,367.2,376.9,367.1z"/>
	<path class="st13" d="M307,307.6c4.1-5.3,9.6-5.8,15.5-5.5c3,0.2,6.1-0.5,9.8-1c13.8,3.1,27.1,5.5,40.7,4.6
		c0.7,0.1,1.5,0.2,2.5,0.4c-1.7,1.4-3.6,3.6-5.8,4c-18.9,3.1-37.9,1-56.9,0C310.9,310,309,308.8,307,307.6z"/>
	<path class="st35" d="M407.4,297.8c0.6,2.6,0.8,5.3,1.3,8.3c0,0.8-0.2,1.3-0.9,2.1c-0.7,0.4-0.9,0.7-0.9,1
		c-6,10.1-14.6,17.7-24.5,24.3c1.4-7.4,3.1-14.9,4.8-22.4c0.4-1.9,0.5-3.9,0.8-6.3C394.3,302.1,400.7,299.9,407.4,297.8z"/>
	<path class="st35" d="M349.8,421c-0.2,1.5-0.5,2.7-0.9,4.2c-16.6-13.9-30.4-30.4-40.1-50.6c2.8,1.3,5.9,2.6,8.2,4.8
		c6.5,6,13.3,11.6,17.7,19.8C338.7,406.9,344.6,413.6,349.8,421z"/>
	<path class="st28" d="M203,521.9c0.1-2.1,0.5-4,0.9-6.2c18.8,11.5,39.8,17.1,61.6,21.6c0.4,0.4,0.5,0.7,0.5,1.4
		C244,537.5,222.3,534.7,203,521.9z"/>
	<path class="st7" d="M370.9,284.3c-16.2,0.7-32.5,2.2-48.6-1.1c-1.7-0.3-3.2-1.2-4.8-2.2c15-3.1,30-1.8,45-1.9
		c2.1,0,4.2,0.7,6.8,1.5C370.3,282.1,370.6,283.2,370.9,284.3z"/>
	<path class="st28" d="M316.9,345.1c0.1-0.3,0.4-0.5,0.9-0.8c2.6,0.3,5,0.6,8,1.3c4.8,1.1,9,1.9,13.2,2.7c1.1,0.3,2.2,0.6,3.8,1.2
		c1.1,0.1,1.6,0,2.2-0.2c1.4,0,2.7,0,4.6,0.3c1.8,0.4,3.1,0.5,4.4,0.6c7.4-0.2,14.8-0.4,22.6-0.8c1.5-0.2,2.5-0.1,4,0.2
		c-0.6,2.1-1.6,3.8-3,5.6c-2.8,0.3-5.2,0.4-7.6,0.3c-1,0-2,0.2-3.4,0.6C348.5,357.3,332.6,351.6,316.9,345.1z"/>
	<path class="st9" d="M371.3,284.3c-0.7-1.1-1.1-2.2-1.6-3.6c3.3-3.4,7.6-6.1,10.2-9.8c3.9-5.6,8.4-6,14-3.8
		c0.7,0.3,1.6,0.2,2.9,0.3c-0.4,2.1-1.2,4.2-2.4,7c-0.5-1.5-0.6-2.7-1.1-3c-2-1-4.1-1.8-6.1-2.6c0,1.9-0.2,3.9,0.2,5.7
		c0.3,1.4,1.6,2.5,2.5,4c-1.2,6.5-5.7,7.3-10.9,6.8C376.6,285,374.2,284.7,371.3,284.3z"/>
	<path class="st28" d="M153.9,423.9c-2.1,2.7-4.1,5-6.5,7.3c-0.6-12.4-0.9-24.8-1-37.6c1.3,1.3,3,2.9,3.3,4.8
		C151.3,406.7,152.5,415.1,153.9,423.9z"/>
	<path class="st13" d="M278.2,483.1c-0.4,0.9-1,1.4-1.9,2.1c-2.2-1.9-4.2-3.8-5.8-5.9c-2.3-3-4-6.3-6.4-9.2
		c-5.3-6.6-9.4-13.5-9.1-22.8c3.8,5.9,7.4,12.3,11.3,18.6C270.1,471.6,274.2,477.2,278.2,483.1z"/>
	<path class="st23" d="M357.6,124.3c-3.6,3.5-7.6,6.8-11.4,10.5c-3.2,3.1-6.3,6.3-9.3,9.6c-5.2,5.8-10.2,11.8-15.6,17.8
		c2.1-3.8,4.5-7.9,7-11.8c1.8-2.9,3.7-5.8,5.9-8.3c2.2-2.6,4.8-5,7.5-7.1c3.8-3.1,7.8-5.9,11.8-8.7
		C354.6,125.5,356,124.9,357.6,124.3z"/>
	<path class="st23" d="M317.7,166.4c-3.4,5.3-7.2,10.6-11.3,16C309,176.6,309.3,168.8,317.7,166.4z"/>
	<path class="st35" d="M338.8,347.9c-4.1-0.4-8.3-1.2-12.7-2.3C330.2,346.1,334.5,346.8,338.8,347.9z"/>
	<path class="st35" d="M353.7,350c-1.1,0.2-2.4,0.1-3.7-0.3C351,349.4,352.2,349.6,353.7,350z"/>
	<path class="st23" d="M320.6,162.4c-0.4,1.2-1.2,2.5-2.3,3.9C318.8,165,319.5,163.7,320.6,162.4z"/>
	<path class="st35" d="M344.8,349.1c-0.4,0.4-1,0.5-1.7,0.4C343.5,349.1,344.1,349,344.8,349.1z"/>
	<path class="st13" d="M355.2,161.4c-3.4-11.5,4.8-18.2,10.2-26.1c0.7-1,1.2-2.2,1.9-3.7c5.4,2.7,0,4.8-1.2,7.6
		c-0.8,0.9-0.9,1.4-1.1,2c0,0,0,0-0.3,0.1c-0.5,0.3-0.7,0.5-0.7,0.9c0,0,0,0-0.4,0.2c-2.2,4.4-4.1,8.7-5.8,13
		c-0.4,1.1,0.1,2.6,0.1,3.9C357.1,160.1,356.3,160.8,355.2,161.4z"/>
	<path class="st22" d="M358.2,159.1c-0.3-1-0.8-2.5-0.4-3.6c1.7-4.4,3.6-8.6,5.8-13c-0.9,3.5-2,7.2-3.2,10.9
		C359.7,155.2,359.1,157,358.2,159.1z"/>
	<path class="st22" d="M365.2,141.1c-0.1-0.4,0.1-1,0.6-1.7C365.9,139.8,365.7,140.4,365.2,141.1z"/>
	<path class="st22" d="M364.2,142.2c-0.2-0.3,0-0.5,0.5-0.8C364.9,141.7,364.7,141.9,364.2,142.2z"/>
	<path class="st15" d="M391,396c0.9,3.5,1.8,7,2.8,10.9c-9-2.2-10.3-3.9-10.5-15c2.3,2.3,4.3,4.9,7,8.3
		C390.7,397.9,390.9,396.9,391,396z"/>
	<path class="st15" d="M380.2,390.3c-1.2-3.1-2-6.3-2.8-9.4c5.3,1.2,10.5,1.6,11.1,8c-2.1-0.8-3.8-1.9-6.6-3.7
		c0.5,2.8,0.7,3.9,0.9,5.1C382.1,390.3,381.4,390.3,380.2,390.3z"/>
	<path class="st5" d="M382.9,390.5c-0.2-1.4-0.4-2.5-1-5.3c2.8,1.8,4.5,2.9,6.5,4c0.3,0.1,0.4,0.5,0.4,1.1c0.5,1.4,0.9,2.2,1.4,3
		c0.1,0.2,0.2,0.3,0.6,0.8c0.2,0.6,0.2,1,0.2,1.7c-0.2,1.2-0.4,2.2-0.8,4.4c-2.7-3.4-4.7-6-7-8.7C383,391.1,383,390.9,382.9,390.5z"
		/>
	<path class="st20" d="M394.9,396.7c0.6-5.6-1-10-4.7-13.8c-2.8-2.9-3.3-6.1,0-9.5c3.5-3.6,6.4-7.8,9.6-12.3c0-0.5,0.1-0.8,0.1-0.8
		c3.4-1.1,6.7-2.2,10.5-3.4c8.9,17.7,18.1,35.2,25.6,53.4c3.6,8.8,4.9,18.9,5.6,28.5c1,14,1.6,28.2-3.6,42.2c-0.5,1.2-1.1,2-1.3,3
		c-2.7,10.1-11.1,13.9-19.7,15.9c-4.5,1-9.9-1.6-14.8-3.1c-1.1-0.4-2.2-3-2.2-4.5c0.5-11.1,1.8-22.1,2-33.2
		c0.3-11.8,0.4-23.7-0.8-35.4C400.3,414.6,397.1,405.9,394.9,396.7z"/>
	<path class="st37" d="M693.1,346.4c4,0.9,7.8,2.1,12.1,4c-0.1,2.2-0.2,4.2-1.1,5.5C694.1,371,684,386,673.9,401
		c-1.9,2.8-4.1,5.4-6.6,8.4c-15,14.7-29.2,29.6-44.3,43.4c-17,15.5-36.2,27.7-56.2,38.3c-2.6-2-5.2-4.1-7.8-6.1
		c-2.5-1.9-5-3.9-7.6-6.3C613.9,452.5,661.4,409.1,693.1,346.4z"/>
	<path class="st38" d="M659.8,421c1.6-2,3.4-4,4.9-6.2c8-11.3,16-22.7,23.9-34.1c0.7-1,0.8-2.5,1.3-4.1c2.2-4.3,4.9-8,6.5-12.1
		c5-12.8,9.5-25.8,14.8-38.9c2,1.6,4.1,3.3,4.7,5.4c1,3.9,3.2,5.8,7,6.2c-4,9.8-8,19.5-12,29.6c-10.7,20.3-23,39.2-38.6,56.4
		c-0.8,0.5-1.1,0.8-1.3,1.1c-0.2,0.1-0.5,0.3-1.2,0.7C664.8,426.8,661.1,426.6,659.8,421z"/>
	<path class="st19" d="M659.5,421.2c1.5,5.4,5.2,5.6,10.1,4.1c-6.2,6.9-12.5,14.2-19.5,20.6c-18.6,17.2-40.7,28.8-63.7,39
		c-3.9,1.7-8,2.7-12,4.1c-0.3-0.4-0.6-0.8-0.9-1.2c2-1.5,4-2.9,6.3-4.6c16.1-8.3,31.2-17.5,44.6-29.2
		C636.5,443.5,647.7,432.3,659.5,421.2z"/>
	<path class="st19" d="M671.2,424.4c-0.1-0.3,0.2-0.6,0.8-0.9C672,423.7,671.8,424,671.2,424.4z"/>
	<path class="st39" d="M723.1,337c-4-0.1-6.2-2-7.2-5.9c-0.6-2.1-2.7-3.8-4.4-5.7c2-15.6,5.1-31.1,6.6-46.7
		c1.4-15.7,1.2-31.5,2.1-47.6c4.4,4.6,8.5,9.4,12.5,14.3c3.9,19,4.3,38-0.1,56.9C729.9,313.7,726.4,325.2,723.1,337z"/>
	<path class="st19" d="M732.7,244.9c-4.2-4.5-8.2-9.3-12.5-14.4c0.1-1.4,0.4-2.6,0.9-4.3c1.7,1.3,2.8,2.2,4.2,3.1
		C728.1,234.4,730.5,239.5,732.7,244.9z"/>
	<path class="st36" d="M399.9,359.8c0,0.4-0.1,0.7-0.2,0.9c-7.4,2.1-14.8,4.1-22.5,6.3c-6.1,0.3-11.8,0.6-17.6,0.5
		c-18-0.3-34.2-7.1-50.5-13.7c-1.1-0.5-2.8-2.3-2.5-3c0.4-1.3,1.8-2.6,3.1-3.3c2-1,4.4-1.4,6.9-2.3c16.1,6.3,32,12.1,50.3,11
		c1.6-0.1,2.4-0.3,3.1-0.4c2.4-0.2,4.8-0.3,8-0.6c8.9-2.7,16.9-5.3,25-7.9C401.9,351.4,400.9,355.4,399.9,359.8z"/>
	<path class="st22" d="M403.2,347.2c-8.3,2.9-16.4,5.5-24.9,8c0.6-1.8,1.6-3.5,2.6-5.5c11.1-1,21.3-4.2,30.9-9.7
		c1.8-1,3.9-1.7,6.2-2.5c-3,2.4-6.3,4.7-9.8,6.9C406.8,345.4,405.1,346.1,403.2,347.2z"/>
	<path class="st24" d="M407.1,309c-0.1-0.2,0-0.5,0.5-0.7C407.7,308.5,407.6,308.8,407.1,309z"/>
	<path class="st15" d="M373,305.5c-13.6,1.2-26.9-1.2-40.4-4.7c-5.7-2.2-11.2-4.3-16.4-6.6c-2.9-1.3-4.1-3.6-2.4-7.5
		c18,10.9,38,13.8,58.8,15.1C373,303,373,304.1,373,305.5z"/>
	<path class="st24" d="M406.6,286.9c1.1,0.8,1.9,1.7,2.7,3c-2.8,1.4-5.7,2.4-9,3.5C402.1,291.4,404.2,289.3,406.6,286.9z"/>
	<path class="st22" d="M406.2,276.9c0.8-0.3,1.5-0.4,2.5-0.7c-0.5,0.9-1.3,2-2.4,3.1C405.9,278.6,406,277.8,406.2,276.9z"/>
	<path class="st18" d="M340.9,163.3c0.9-1.3,1.8-2.6,2.6-3.9c0.3,0.2,0.7,0.4,1,0.6c-1.4,4.8-2.8,9.6-4.4,14.9
		c-1.8,0.1-4.1,0.2-6.8,0c1.9-3.8,4.2-7.3,6.6-10.7c0,0,0,0.1,0.1-0.1C340.3,163.6,340.6,163.4,340.9,163.3z"/>
	<path class="st19" d="M339.6,164.3c-2,3.3-4.3,6.8-6.7,10.6c-2.6,1.2-5.1,2-7.7,2.9c-0.3-0.4-0.5-0.7-0.8-1.1
		C329.4,172.6,334.3,168.6,339.6,164.3z"/>
	<path class="st19" d="M340.7,163.4c-0.1,0-0.3,0.2-0.7,0.7C340.1,164.1,340.2,163.8,340.7,163.4z"/>
	<path class="st15" d="M390.4,393c-0.5-0.5-1-1.3-1.4-2.4C389.4,391,389.9,391.8,390.4,393z"/>
	<path class="st22" d="M369.9,355.6c-0.7,0.4-1.4,0.5-2.6,0.6C367.9,355.8,368.8,355.5,369.9,355.6z"/>
	<path class="st15" d="M854,238"/>
	<path class="st15" d="M900.7,248.3"/>
	<path class="st32" d="M607.7,196.9"/>
	<path class="st32" d="M614.9,282.8"/>
	<path class="st7" d="M813.4,333.9"/>
	<path class="st15" d="M794.9,276"/>
	<path class="st15" d="M785.2,243.9"/>
	<path class="st17" d="M703.2,511.8"/>
	<path class="st14" d="M738.8,490.8"/>
	<path class="st34" d="M807.8,328"/>
	<g>
		<path class="st40" d="M46.9,743.9c-6.7-0.3-13.3-2.9-18.3-8.3l-0.3,0.1l-0.8,5.6l-22.5-1L9.5,640l24.1,1.1l-1.8,40.2l0.3,0.1
			c5.6-4.3,12.2-6.3,18.5-6C65.7,676.1,79.1,688,78,711C77,733.8,62.4,744.6,46.9,743.9z M53.5,709.9c0.6-9.9-3.4-16.8-10.9-17.2
			c-7.6-0.3-12,6.3-12.5,16.1c-0.6,9.9,3.4,16.9,10.9,17.2C48.6,726.4,53.1,719.8,53.5,709.9z"/>
		<path class="st40" d="M121.5,724.2c4.1,0,8.7-1.7,12.9-7.3l15.7,8.8c-6.2,10.2-17.5,15-29,15c-18.6,0-36.3-12.5-36.3-34
			c0-19.3,13.9-34.9,34.6-34.9c20.4,0,35.6,13.7,35.6,35.6c0,1.8-0.1,3.6-0.6,8.4l-45.8-4.9C108.8,718.3,113.7,724.2,121.5,724.2z
			 M121,688.6c-4.6,0-9.1,3.1-10.8,9.7l21.4,2.2C131,692.2,127,688.6,121,688.6z"/>
		<path class="st40" d="M207.6,692.7l-12.9,0.6l2.1,46.9l-24.4,1.1l-2.1-46.9l-9.2,0.4l-0.7-18.3l9.2-0.4l-1-21.1l24.4-1l0.8,21.1
			l12.9-0.7L207.6,692.7z"/>
		<path class="st40" d="M301.8,744.9l-22.8-0.7l-10.2-34.6h-0.1l-12.3,33.9l-22.8-0.7l-21-65.9l25.6,0.8l9.9,36.7h0.1l13-36
			l17.5,0.6l10.6,36.7h0.1l11.9-36.1l25.2,0.8L301.8,744.9z"/>
		<path class="st40" d="M365.8,724.2c4.1,0,8.7-1.7,12.9-7.3l15.7,8.8c-6.2,10.2-17.5,15-29,15c-18.6,0-36.3-12.5-36.3-34
			c0-19.3,13.9-34.9,34.6-34.9c20.4,0,35.6,13.7,35.6,35.6c0,1.8-0.1,3.6-0.6,8.4l-45.8-4.9C353.1,718.3,358,724.2,365.8,724.2z
			 M365.3,688.6c-4.6,0-9.1,3.1-10.8,9.7l21.4,2.2C375.3,692.2,371.3,688.6,365.3,688.6z"/>
		<path class="st40" d="M443.7,724.2c4.1,0,8.7-1.7,12.9-7.3l15.7,8.8c-6.2,10.2-17.5,15-29,15c-18.6,0-36.3-12.5-36.3-34
			c0-19.3,13.9-34.9,34.6-34.9c20.4,0,35.6,13.7,35.6,35.6c0,1.8-0.1,3.6-0.6,8.4l-45.8-4.9C430.9,718.3,435.8,724.2,443.7,724.2z
			 M443.1,688.6c-4.6,0-9.1,3.1-10.8,9.7l21.4,2.2C453.2,692.2,449.1,688.6,443.1,688.6z"/>
		<path class="st40" d="M530.6,704c0.4-3.4-0.1-4.9-0.8-6.4c-1.3-2.1-3.5-3.4-6.3-3.8c-3.1-0.4-6,0.8-7.8,2.8c-1,1.1-1.7,2.9-2.1,6
			l-4.9,38.4l-23.9-3.1l8.3-64.7l22.3,2.9l-0.1,6h0.1c5.2-4.3,13.3-6,21.1-5c5.6,0.7,11.1,3.1,14.7,7.1c3.4,4.1,5.2,9.5,4.1,18.2
			l-5.6,43.8l-23.9-3.1L530.6,704z"/>
		<path class="st40" d="M636.9,746.1c-12.2,0-25.9-5-34.6-14.4l11.6-12.3c4.5,4.8,13.2,11.1,19.6,11.1c3.4,0,5.3-1.7,5.3-3.9
			c0-1.5-1.1-2.9-2.9-3.9c-2-1.1-4.1-2-5.5-2.7l-3.9-1.8c-3.5-1.5-6.2-3.1-8.3-4.5c-6.2-4.1-9.4-8.4-9.4-14.8
			c0-13.2,11.2-21.4,25.9-21.4c13.4,0,25.6,6.4,31.2,13.4l-11.2,11.6c-4.2-4.6-11.6-9.9-17.6-9.9c-3.1,0-5.2,1.4-5.2,3.6
			c0,2.1,2.5,3.6,4.9,4.9c2.4,1.3,5,2.4,8.1,3.9l3.6,1.8c4.2,2.1,9.7,5.5,12.3,10.2c1.4,2.4,2.2,4.9,2.2,8.3
			C663.2,738,651,746.1,636.9,746.1z"/>
		<path class="st40" d="M720.3,746.8l-3.1-39.5c-0.3-3.2-1-4.8-2.1-6.2c-1.5-1.7-3.6-2.4-5.9-2.4c-4.8,0-9.1,3.4-9.1,8
			c0,2.5,0.1,4.3,0.3,5.9l2.8,35.4l-24.1,1.8l-7.7-100.1l24.2-1.8l2.9,39.8l0.1,0.1c5.2-5.2,13.3-8.1,20.9-8.1c5,0,9.9,1.3,13.9,4.3
			c4.1,3.2,6.7,8.1,7.4,16.9l3.4,43.8L720.3,746.8z"/>
		<path class="st40" d="M788.2,679.2c21.6,0,37.1,13.7,37.1,34.3c0,20.6-15.5,34.3-37.1,34.3c-21.6,0-37.1-13.7-37.1-34.3
			C751.1,692.9,766.6,679.2,788.2,679.2z M800,713.5c0-9.9-4.2-16.7-11.8-16.7c-7.6,0-11.8,6.7-11.8,16.7c0,9.9,4.2,16.7,11.8,16.7
			C795.8,730.2,800,723.5,800,713.5z"/>
		<path class="st40" d="M918.9,744.9l-22.8-0.7l-10.2-34.6h-0.1l-12.3,33.9l-22.8-0.7l-21-65.9l25.6,0.8l9.9,36.7h0.1l13-36
			l17.5,0.6l10.6,36.7h0.1l11.9-36.1l25.2,0.8L918.9,744.9z"/>
		<path class="st40" d="M977.7,746.1c-12.2,0-25.9-5-34.6-14.4l11.6-12.3c4.5,4.8,13.2,11.1,19.6,11.1c3.4,0,5.3-1.7,5.3-3.9
			c0-1.5-1.1-2.9-2.9-3.9c-2-1.1-4.1-2-5.5-2.7l-3.9-1.8c-3.5-1.5-6.2-3.1-8.3-4.5c-6.2-4.1-9.4-8.4-9.4-14.8
			c0-13.2,11.2-21.4,25.9-21.4c13.4,0,25.6,6.4,31.2,13.4l-11.2,11.6c-4.2-4.6-11.6-9.9-17.6-9.9c-3.1,0-5.2,1.4-5.2,3.6
			c0,2.1,2.5,3.6,4.9,4.9c2.4,1.3,5,2.4,8.1,3.9l3.6,1.8c4.2,2.1,9.7,5.5,12.3,10.2c1.4,2.4,2.2,4.9,2.2,8.3
			C1004.1,738,991.9,746.1,977.7,746.1z"/>
	</g>
</g>
<g id="Layer_2">
	<path class="st40" d="M603.8,208.4c2.5-0.1,6,0.2,9.3,2.1c12.8,7.1,12,30.9,11.5,44.3c-0.4,11.8-2.2,20.3-4.6,31.3
		c-6,26.8-14.3,45.7-16.8,51.2c-4.9,10.8-9.5,18.7-14.9,26.2c-3.8,5.3-11.2,14.8-12.2,14.1c-1.8-1.2,21.6-27.9,29.9-67.9
		c3.8-18.3,3.4-34.2,2.9-51.8C608.3,237.5,606,220.6,603.8,208.4z"/>
</g>
</svg>
