<svg width="23" height="23" viewBox="0 0 23 23" fill="none" xmlns="http://www.w3.org/2000/svg">
<path id="Union" fill-rule="evenodd" clip-rule="evenodd" d="M11.5563 1.55635C6.03349 1.55635 1.55634 6.0335 1.55634 11.5563C1.55634 17.0792 6.03349 21.5563 11.5563 21.5563C17.0792 21.5563 21.5563 17.0792 21.5563 11.5563C21.5563 6.0335 17.0792 1.55635 11.5563 1.55635ZM0.556335 11.5563C0.556336 5.48122 5.4812 0.556349 11.5563 0.556349C17.6315 0.556349 22.5563 5.48122 22.5563 11.5563C22.5563 17.6315 17.6315 22.5563 11.5563 22.5563C5.4812 22.5563 0.556336 17.6315 0.556335 11.5563ZM9.19899 8.45209L14.698 13.9511L15.8558 7.30995L9.19899 8.45209ZM14.0189 14.6862L8.46371 9.13102L7.30991 15.8558L14.0189 14.6862ZM8.39233 7.57588C7.97465 7.64754 7.6475 7.97469 7.57584 8.39237L6.32431 15.6867C6.20741 16.3681 6.80061 16.9597 7.48166 16.8409L14.7588 15.5723C15.1744 15.4998 15.4998 15.1744 15.5722 14.7589L16.8409 7.4817C16.9596 6.80065 16.368 6.20745 15.6867 6.32435L8.39233 7.57588Z" fill="#E9A6A6"/>
</svg>
