<svg width="132" height="57" viewBox="0 0 132 57" fill="none" xmlns="http://www.w3.org/2000/svg">
<g id="Stats">
<line id="Line 5" x1="16" y1="56.75" x2="132" y2="56.75" stroke="white" stroke-opacity="0.5" stroke-width="0.5"/>
<g id="Star">
<path id="Vector" d="M7.55556 52.7288C7.63815 52.6672 7.69942 52.5814 7.73076 52.4833C7.76211 52.3852 7.76197 52.2798 7.73036 52.1817C7.69875 52.0837 7.63725 51.998 7.55449 51.9367C7.47174 51.8754 7.37187 51.8416 7.26889 51.8399L5.26889 51.7643C5.25906 51.7636 5.24963 51.7601 5.24175 51.7542C5.23386 51.7483 5.22785 51.7402 5.22445 51.731L4.53334 49.8643C4.49861 49.7694 4.43555 49.6874 4.35267 49.6294C4.2698 49.5715 4.17112 49.5404 4.07001 49.5404C3.96889 49.5404 3.87021 49.5715 3.78734 49.6294C3.70446 49.6874 3.6414 49.7694 3.60667 49.8643L2.91778 51.7377C2.91438 51.7469 2.90837 51.755 2.90048 51.7609C2.8926 51.7668 2.88317 51.7703 2.87334 51.771L0.873339 51.8466C0.770362 51.8482 0.670494 51.8821 0.587737 51.9434C0.504981 52.0047 0.443485 52.0904 0.411874 52.1884C0.380263 52.2864 0.380121 52.3919 0.411469 52.49C0.442816 52.5881 0.504081 52.6739 0.586672 52.7354L2.15556 53.9688C2.16341 53.975 2.16928 53.9833 2.17244 53.9928C2.1756 54.0023 2.17591 54.0125 2.17334 54.0221L1.63334 55.9354C1.60536 56.0329 1.60807 56.1366 1.6411 56.2324C1.67414 56.3282 1.7359 56.4116 1.81797 56.4711C1.90005 56.5306 1.99846 56.5633 2.09982 56.5649C2.20118 56.5665 2.30056 56.5368 2.38445 56.4799L4.04223 55.3688C4.05039 55.3631 4.06008 55.3601 4.07001 55.3601C4.07993 55.3601 4.08962 55.3631 4.09778 55.3688L5.75556 56.4799C5.83832 56.5387 5.93735 56.5704 6.03889 56.5704C6.14044 56.5704 6.23947 56.5387 6.32223 56.4799C6.40432 56.421 6.46614 56.338 6.49917 56.2425C6.5322 56.147 6.53482 56.0436 6.50667 55.9466L5.96223 54.0266C5.95934 54.0169 5.9595 54.0066 5.96268 53.9971C5.96586 53.9875 5.97191 53.9792 5.98 53.9732L7.55556 52.7288Z" fill="#EC2626"/>
</g>
<rect id="Rectangle 28" x="122.2" y="0.2" width="9.6" height="56.6" fill="white" fill-opacity="0.5" stroke="#1F1D36" stroke-width="0.4"/>
<rect id="Rectangle 29" x="112.2" y="11.2" width="9.6" height="45.6" fill="white" fill-opacity="0.5" stroke="#1F1D36" stroke-width="0.4"/>
<rect id="Rectangle 30" x="102.2" y="19.2" width="9.6" height="37.6" fill="white" fill-opacity="0.5" stroke="#1F1D36" stroke-width="0.4"/>
<rect id="Rectangle 31" x="92.2" y="27.2" width="9.6" height="29.6" fill="white" fill-opacity="0.5" stroke="#1F1D36" stroke-width="0.4"/>
<rect id="Rectangle 32" x="82.2" y="42.2" width="9.6" height="14.6" fill="white" fill-opacity="0.5" stroke="#1F1D36" stroke-width="0.4"/>
<rect id="Rectangle 33" x="72.2" y="48.2" width="9.6" height="8.6" fill="white" fill-opacity="0.5" stroke="#1F1D36" stroke-width="0.4"/>
</g>
</svg>
